<svg width="60" height="52" viewBox="0 0 60 52" fill="none" xmlns="http://www.w3.org/2000/svg">
<path d="M45 4.76633e-08L60 26L45 52H15L0 26L15 0L45 4.76633e-08Z" fill="black"/>
<path d="M45 4.76633e-08L15 52L0 26L15 0L45 4.76633e-08Z" fill="#424653"/>
<path fill-rule="evenodd" clip-rule="evenodd" d="M17.1979 17.1622L17.0192 17.3244L17.0035 24.5135C16.9949 28.4675 17.0027 31.7865 17.0208 31.8892C17.0389 31.9919 17.1173 32.1357 17.1949 32.2089C17.3319 32.3378 17.3629 32.3418 18.2343 32.3418C19.404 32.3418 19.4381 32.324 19.5908 31.6328C19.9258 30.1162 21.1742 29.1178 22.7356 29.1178C24.2809 29.1178 25.5488 30.1318 25.8804 31.6328C25.9764 32.0676 26.0339 32.1768 26.2192 32.2771C26.3067 32.3244 27.3307 32.3418 30.0389 32.3418H33.7391L33.899 32.1793L34.0589 32.0168L34.0577 24.6891C34.0565 17.8301 34.0504 17.3537 33.9619 17.2427C33.9099 17.1775 33.8136 17.0962 33.7479 17.0621C33.6615 17.0172 31.3796 17 25.5025 17H17.3765L17.1979 17.1622ZM35.6061 20.1518C35.5394 20.1649 35.4225 20.251 35.3462 20.3431L35.2076 20.5104V26.2551V31.9997L35.3759 32.1707C35.5397 32.3372 35.5579 32.3418 36.0523 32.3418C36.708 32.3418 36.805 32.2752 36.924 31.7435C37.1053 30.9339 37.4148 30.3611 37.9102 29.9183C39.251 28.7201 41.5849 28.9048 42.6169 30.2907C42.9448 30.731 43.106 31.0795 43.2456 31.6497C43.3979 32.2719 43.4871 32.3418 44.129 32.3418C44.6854 32.3418 44.8453 32.2737 44.9404 31.9963C45.0137 31.7827 45.0223 26.2406 44.9497 26.0465C44.8673 25.8262 40.3015 20.316 40.1136 20.2101C39.9569 20.1218 39.747 20.1135 37.8342 20.1204C36.6754 20.1246 35.6727 20.1387 35.6061 20.1518ZM36.5077 21.4423L36.329 21.6045V23.2534V24.9023L36.5077 25.0645L36.6863 25.2267H39.2796H41.8729L42.0349 25.0882C42.2159 24.9334 42.275 24.6948 42.1859 24.4788C42.1008 24.2723 39.8016 21.4756 39.63 21.3697C39.5065 21.2935 39.2758 21.2801 38.0855 21.2801H36.6863L36.5077 21.4423ZM22.1976 30.2592C20.6393 30.6029 19.8718 32.5022 20.7318 33.8866C21.2214 34.6747 22.2056 35.1247 23.0992 34.9692C24.006 34.8113 24.7107 34.1893 25.0059 33.2862C25.1574 32.8227 25.1043 32.0845 24.8853 31.6091C24.5653 30.9148 23.9509 30.4081 23.2444 30.256C22.7958 30.1593 22.6481 30.1598 22.1976 30.2592ZM39.6776 30.2317C39.2545 30.304 38.7534 30.5752 38.429 30.9075C37.5015 31.8574 37.5026 33.3469 38.4315 34.2908C39.8078 35.6893 42.1329 34.9047 42.4339 32.9403C42.629 31.6672 41.7438 30.4384 40.4802 30.2282C40.1188 30.168 40.0486 30.1683 39.6776 30.2317ZM22.3756 32.0019C22.198 32.112 22.0245 32.416 22.0245 32.617C22.0245 32.9688 22.3716 33.2867 22.7559 33.2867C22.968 33.2867 23.0341 33.2577 23.1961 33.093C23.435 32.8503 23.491 32.5923 23.3639 32.3203C23.1844 31.9359 22.7224 31.787 22.3756 32.0019ZM39.7409 31.9907C39.4348 32.1837 39.3257 32.6355 39.5091 32.951C39.8541 33.5444 40.7877 33.2961 40.787 32.6111C40.7864 32.0843 40.1711 31.7194 39.7409 31.9907Z" fill="white"/>
</svg>
