<svg width="320" height="378" viewBox="0 0 320 378" fill="none" xmlns="http://www.w3.org/2000/svg">
<path fill-rule="evenodd" clip-rule="evenodd" d="M320 0H23.5342L0 41.0103V378H164.312L167.514 372.114L180.309 378H180.702C172.415 367.785 166.179 355.853 162.584 342.817L136 334.118V305.759C136 301.67 138.694 298.065 142.617 296.907L154.462 293.4L159.573 307.219C160.947 293.508 165.23 280.673 171.715 269.25L159.041 244.245L179.098 224.196C181.987 221.303 186.437 220.658 190.032 222.61L200.886 228.515L194.711 241.937C204.99 233.534 217.024 227.213 230.183 223.583L238.882 197H267.241C271.33 197 274.935 199.693 276.093 203.617L279.6 215.461L265.781 220.573C279.492 221.947 292.327 226.23 303.749 232.715L320 224.479V0ZM320 280.133C307.24 258.029 283.358 243.154 256 243.154C215.214 243.154 182.154 276.214 182.154 317C182.154 342.339 194.917 364.7 214.367 378H297.633C297.711 377.946 297.79 377.893 297.868 377.839L320 340.074V280.133ZM200.615 317C200.615 286.414 225.414 261.615 256 261.615C286.586 261.615 311.385 286.414 311.385 317C311.385 347.586 286.586 372.385 256 372.385C225.414 372.385 200.615 347.586 200.615 317ZM274.462 317C274.462 306.805 266.195 298.539 256 298.539C245.805 298.539 237.538 306.805 237.538 317C237.538 327.195 245.805 335.461 256 335.461C266.195 335.461 274.462 327.195 274.462 317Z" fill="#FFCB05"/>
</svg>
