<svg width="867" height="418" viewBox="0 0 867 418" fill="none" xmlns="http://www.w3.org/2000/svg">
<path fill-rule="evenodd" clip-rule="evenodd" d="M867 0H23.5342L0 41.0103V418H546.775C534.945 399.542 525.783 379.216 519.81 357.557L459 337.658V272.786C459 263.432 465.161 255.187 474.135 252.537L501.231 244.516L512.923 276.127C516.067 244.762 525.863 215.401 540.698 189.273L511.706 132.072L557.587 86.2119C564.196 79.5923 574.375 78.1169 582.599 82.5828L607.426 96.0894L593.301 126.793C616.815 107.57 644.343 93.1116 674.443 84.8098L694.342 24H759.214C768.568 24 776.813 30.1614 779.463 39.1355L787.484 66.2307L755.873 77.9226C787.238 81.0669 816.599 90.863 842.727 105.698L867 93.3955V0ZM867 194.981C836.097 155.185 787.791 129.577 733.5 129.577C640.202 129.577 564.577 205.202 564.577 298.5C564.577 345.172 583.506 387.426 614.107 418H691.319C642.088 400.621 606.808 353.677 606.808 298.5C606.808 228.534 663.534 171.808 733.5 171.808C803.466 171.808 860.192 228.534 860.192 298.5C860.192 353.677 824.912 400.621 775.681 418H844.773L867 380.074V194.981ZM775.731 298.5C775.731 275.178 756.822 256.269 733.5 256.269C710.178 256.269 691.269 275.178 691.269 298.5C691.269 321.822 710.178 340.731 733.5 340.731C756.822 340.731 775.731 321.822 775.731 298.5Z" fill="#FFCB05"/>
</svg>
