<svg width="80" height="80" viewBox="0 0 80 80" fill="none" xmlns="http://www.w3.org/2000/svg">
<path fill-rule="evenodd" clip-rule="evenodd" d="M36.7163 0.42793V0.85586L37.755 0.792253C38.3263 0.757202 38.815 0.7071 38.8411 0.680915C38.8671 0.65473 38.8574 0.490815 38.8193 0.316695L38.7501 0H37.7333H36.7163V0.42793ZM38.3329 1.00142C38.0169 1.04977 38.0076 1.07524 37.6191 2.93809L37.3826 4.07209L37.3169 3.45354C37.2807 3.11334 37.2461 2.42913 37.24 1.93295L37.2289 1.03091H36.8157C36.5369 1.03091 36.3826 1.08297 36.3415 1.1907C36.308 1.27853 36.3401 2.65129 36.4131 4.24126L36.5458 7.13213L36.8489 7.0711C37.0155 7.0376 37.2508 7.01018 37.3714 7.01018C37.5729 7.01018 37.6246 6.85492 37.9993 5.12877C38.4038 3.26551 38.4083 3.25282 38.4744 3.81436C38.5111 4.12621 38.5458 4.75764 38.5513 5.21743C38.5568 5.67732 38.5912 6.27174 38.6276 6.53843L38.6936 7.02327L39.1145 6.95337C39.3459 6.91492 39.5443 6.87585 39.5552 6.86657C39.5663 6.85719 39.5094 5.57515 39.4289 4.01755C39.3485 2.45995 39.2817 1.12761 39.2807 1.05668C39.279 0.929467 38.9353 0.909467 38.3329 1.00142ZM43.2779 1.25245C43.2786 1.32905 43.1549 2.6551 43.0029 4.1992C42.851 5.7434 42.7466 7.02451 42.771 7.04626C42.7954 7.06801 43.0282 7.10883 43.2883 7.13688L43.7611 7.1878L43.8521 6.10349L43.943 5.01918L44.5334 5.00207C45.0262 4.98784 45.1728 4.93774 45.4206 4.69898C45.7799 4.35291 45.9418 3.76178 45.9418 2.79727C45.9418 2.17759 45.9058 2.0345 45.6822 1.76729C45.3746 1.39966 45.0211 1.27523 44.0199 1.18214C43.4297 1.1273 43.277 1.14173 43.2779 1.25245ZM32.8567 1.56554L32.3285 1.66203L32.254 2.97015C32.213 3.68962 32.1485 4.36311 32.1106 4.46682C32.0683 4.5828 31.9479 4.15652 31.7979 3.36045C31.6638 2.6482 31.5256 2.01903 31.4908 1.96233C31.4527 1.90027 31.2628 1.88935 31.0136 1.93481L30.5997 2.01027L31.1656 4.95547L31.7316 7.90078L32.2267 7.80233C32.8161 7.68511 32.7708 7.83068 32.9213 5.57144C32.9834 4.63837 33.0475 3.86147 33.064 3.84498C33.0805 3.82848 33.2492 4.65012 33.4391 5.67072C33.7228 7.19502 33.8129 7.51893 33.9435 7.48409C34.0309 7.46079 34.2293 7.41326 34.3843 7.37862C34.5393 7.34388 34.6656 7.25842 34.6649 7.18863C34.6606 6.79492 33.5627 1.50502 33.4819 1.48873C33.4286 1.47791 33.1472 1.51245 32.8567 1.56554ZM47.8299 4.84651L47.1041 7.73326L47.4711 7.82975C48.3383 8.05768 49.5167 8.35036 49.5675 8.35036C49.6155 8.35036 49.8349 7.67336 49.8365 7.52048C49.8368 7.48934 49.4979 7.37893 49.0833 7.27512L48.3297 7.08636L48.5296 6.28565L48.7296 5.48495L49.2882 5.64474C49.917 5.82463 49.9955 5.78597 50.0938 5.24774L50.1615 4.87702L49.5511 4.74682L48.9408 4.61651L49.1248 3.89683C49.226 3.50107 49.3257 3.16035 49.3463 3.13963C49.3668 3.11901 49.7158 3.18798 50.1217 3.29303L50.8599 3.48395L50.9703 3.0718C51.031 2.845 51.06 2.63882 51.0348 2.61346C50.9799 2.5583 48.8048 1.95996 48.6583 1.95976C48.6019 1.95976 48.2292 3.2587 47.8299 4.84651ZM44.1626 2.79861C44.0563 3.8222 44.0743 3.99054 44.297 4.0492C44.6899 4.1525 44.8546 3.89106 44.8995 3.0919C44.9439 2.30057 44.8795 2.16965 44.4444 2.16645C44.2551 2.16511 44.2204 2.24305 44.1626 2.79861ZM27.6803 2.84727C27.265 3.02066 27.2437 3.08149 27.1236 4.43291C27.0858 4.85816 27.0254 5.26207 26.9895 5.33041C26.9535 5.39876 26.7655 4.99279 26.5719 4.42837C26.3781 3.86384 26.1713 3.40323 26.112 3.40468C26.0529 3.40622 25.8366 3.48736 25.6313 3.58509L25.2581 3.76282L26.2316 6.55905L27.2051 9.35529L27.6987 9.19653L28.1922 9.03787L27.8854 8.185C27.7165 7.71594 27.5933 7.20708 27.6116 7.0542C27.6421 6.79719 27.7025 6.84657 28.4134 7.71027C29.2267 8.6985 29.2033 8.68726 29.8827 8.41438L30.1733 8.29768L29.037 6.97337C28.4121 6.24493 27.9023 5.57258 27.9041 5.47907C27.9059 5.38567 27.9736 4.82207 28.0546 4.22672C28.2858 2.52707 28.3022 2.58758 27.6803 2.84727ZM53.5273 3.49746C53.5273 3.55148 53.0228 4.7931 52.4063 6.25648L51.2853 8.91736L51.6594 9.09024C51.8652 9.18529 52.0637 9.24436 52.1005 9.22147C52.1373 9.19859 52.4358 8.53025 52.7639 7.73625C53.092 6.94224 53.3746 6.30689 53.392 6.32431C53.4093 6.34174 53.2624 7.01616 53.0654 7.82294C52.8684 8.62973 52.7072 9.35188 52.7072 9.42766C52.7072 9.56363 53.4161 9.91167 53.5399 9.83651C53.5749 9.81517 53.9822 9.17045 54.4449 8.40396C54.9075 7.63738 55.3004 7.01018 55.3179 7.01018C55.3355 7.01018 55.0819 7.6481 54.7543 8.42768C54.4268 9.20735 54.1435 9.90837 54.1249 9.98548C54.1051 10.0677 54.2645 10.2018 54.5097 10.3091L54.9282 10.4923L56.0785 7.76037C56.7111 6.25772 57.2124 5.01197 57.1924 4.99186C57.1724 4.97176 56.895 4.83919 56.576 4.69723L55.9959 4.4393L55.4465 5.33815C55.1443 5.83247 54.7175 6.53225 54.498 6.89296C54.2784 7.25378 54.0836 7.50305 54.065 7.44697C54.0464 7.39079 54.2176 6.59895 54.4455 5.68731C54.6734 4.77568 54.8599 4.0091 54.8599 3.98374C54.8599 3.95838 54.7331 3.89116 54.578 3.83446C54.4229 3.77776 54.1231 3.65663 53.9117 3.56529C53.7003 3.47395 53.5273 3.44344 53.5273 3.49746ZM21.5733 5.35701C21.0727 5.58546 20.7264 6.08195 20.7258 6.57163C20.7254 6.8974 21.8016 9.13168 22.4842 10.2222C23.0772 11.1697 24.0168 11.242 24.7745 10.3985C25.226 9.8959 25.2368 9.55033 24.8283 8.6819L24.5236 8.03408L24.1108 8.24582C23.8838 8.36231 23.6981 8.48169 23.6981 8.51118C23.6981 8.54066 23.7904 8.74664 23.9031 8.9689C24.1969 9.54807 24.1748 9.876 23.8359 9.96146C23.4943 10.0477 23.4863 10.0369 22.5091 8.15943C22.075 7.32553 21.7526 6.58328 21.7704 6.45843C21.7937 6.29308 21.8848 6.22895 22.1297 6.20504C22.4222 6.17658 22.4805 6.21834 22.67 6.59163C22.7867 6.82183 22.9061 7.01018 22.9355 7.01018C22.9648 7.01018 23.1706 6.91688 23.3929 6.80276L23.7972 6.59534L23.4759 6.07009C23.1271 5.5001 22.6676 5.15423 22.263 5.15722C22.1221 5.15825 21.8117 5.24815 21.5733 5.35701ZM59.4099 7.00038C59.0943 7.19388 57.3653 9.82518 57.0414 10.6046C56.5676 11.745 58.0514 12.9361 59.1253 12.2776C59.4409 12.0841 61.1699 9.45281 61.4938 8.67334C61.6951 8.18881 61.5899 7.73305 61.1886 7.35099C60.5619 6.75461 59.9933 6.64255 59.4099 7.00038ZM35.1477 7.49986C35.1239 7.54233 34.8823 8.78334 34.6107 10.2575C34.339 11.7317 34.0782 12.99 34.031 13.0537C33.9837 13.1174 33.6703 13.2239 33.3344 13.2904C32.9983 13.3569 32.4615 13.5019 32.1412 13.6127C31.821 13.7236 31.5039 13.8142 31.4367 13.8142C31.3695 13.8142 30.5176 12.8619 29.5435 11.698C27.6019 9.37797 27.7747 9.49497 26.927 9.92497C26.1395 10.3245 20.3814 13.7198 20.1104 13.9445C19.6819 14.2996 19.6776 14.2736 20.6125 16.9798L21.5093 19.5758L20.5179 20.5692L19.5263 21.5626L17.8451 20.9768C16.9204 20.6546 15.7175 20.2376 15.172 20.05L14.18 19.709L13.9186 20.1062C13.7748 20.3248 12.8449 21.9326 11.8519 23.6793C10.8589 25.426 9.95843 26.9509 9.8507 27.0679C9.41608 27.5402 9.62498 27.8184 11.8587 29.7435L13.7038 31.3335L18.9465 31.3366L24.1894 31.3396L24.6757 30.555C25.2821 29.5765 26.0904 28.5517 27.1347 27.4375C30.5457 23.7983 36.0201 21.7133 41.0208 22.149C43.5624 22.3704 45.6428 22.9359 47.6874 23.961C50.6555 25.4492 53.3519 27.9479 54.9426 30.6844L55.3211 31.3357L60.5914 31.3377L65.8616 31.3396L66.5367 30.74C67.85 29.5737 69.47 28.1933 69.7058 28.0398C69.8991 27.9139 69.9309 27.8296 69.8728 27.5972C69.8138 27.3606 69.0324 25.9343 67.7362 23.6973C67.6169 23.4913 67.058 22.523 66.4943 21.5455C65.9305 20.5679 65.4209 19.7492 65.3618 19.7261C65.3027 19.7031 64.0803 20.1027 62.6454 20.614L60.0364 21.5438L59.0318 20.5339L58.0272 19.5241L58.9501 16.8499C59.4577 15.3791 59.8406 14.1441 59.8009 14.1055C59.7614 14.0668 58.1144 13.0996 56.1412 11.956C54.1679 10.8124 52.4792 9.81033 52.3884 9.72909C52.0765 9.45034 51.5916 9.78383 50.6467 10.9267C50.3423 11.2948 49.7704 11.9675 49.3758 12.4217C48.9811 12.8759 48.5543 13.3815 48.4273 13.5452L48.1964 13.8428L47.2485 13.5716C46.7271 13.4223 46.1045 13.2518 45.865 13.1924C45.6254 13.1332 45.4293 13.0401 45.4293 12.9857C45.4293 12.848 44.5097 7.82439 44.444 7.60295C44.394 7.4346 44.0827 7.42254 39.7907 7.42254C37.2607 7.42254 35.1715 7.45738 35.1477 7.49986ZM59.8582 7.91222C59.6004 8.20541 57.935 10.9652 57.935 11.0992C57.935 11.2634 58.2236 11.5462 58.3911 11.5462C58.4647 11.5462 58.5852 11.4732 58.6588 11.384C58.9343 11.0501 60.6002 8.29984 60.6002 8.17881C60.6002 8.05995 60.2189 7.73181 60.0807 7.73181C60.0456 7.73181 59.9456 7.81294 59.8582 7.91222ZM16.5431 8.52819C16.0489 8.88076 15.748 9.16096 15.7955 9.22405C15.8393 9.2822 16.5816 10.3039 17.445 11.4946C18.3084 12.6853 19.0724 13.723 19.1427 13.8006C19.249 13.9178 19.4094 13.8354 20.0919 13.3128C21.0922 12.5471 21.2576 12.2071 20.9827 11.4831C20.7403 10.8445 19.9071 9.99981 19.5198 9.99981C19.252 9.99981 19.2275 9.97136 19.2664 9.70518C19.3226 9.31951 18.9912 8.67581 18.524 8.26325C17.9457 7.75253 17.5575 7.80449 16.5431 8.52819ZM17.3171 9.08024C17.2185 9.13807 17.1377 9.23436 17.1377 9.29426C17.1377 9.38322 17.5245 9.94363 17.8626 10.3444C17.9028 10.3922 18.033 10.379 18.1518 10.315C18.4477 10.1558 18.4287 9.73878 18.1063 9.31364C17.8372 8.9588 17.6294 8.89736 17.3171 9.08024ZM62.5306 11.5191C61.6097 12.5814 60.7381 13.5905 60.5936 13.7613L60.3307 14.0719L60.7047 14.4035L61.0789 14.7351L61.8732 13.8108C62.3101 13.3023 62.7 12.8864 62.7397 12.8864C62.7793 12.8864 62.9603 13.014 63.1416 13.1699L63.4715 13.4534L62.6587 14.3812L61.846 15.309L62.1657 15.644C62.3416 15.8283 62.5166 15.9791 62.5547 15.9791C62.5927 15.9791 63.3562 15.1328 64.2515 14.0985C65.1467 13.0643 66.0164 12.0605 66.1841 11.8679L66.4889 11.5179L66.0962 11.1765L65.7034 10.8351L64.93 11.7576C64.5046 12.265 64.103 12.6802 64.0376 12.6802C63.9722 12.6802 63.7905 12.5455 63.6336 12.3809L63.3485 12.0816L64.1764 11.1529L65.0043 10.2242L64.6438 9.90579C64.4455 9.73074 64.2656 9.58745 64.2439 9.58745C64.2223 9.58745 63.4513 10.4567 62.5306 11.5191ZM18.7506 11.0139L18.4671 11.2018L18.9847 11.8896C19.4928 12.5646 19.5068 12.5743 19.7465 12.4164C20.2104 12.1106 20.1556 11.8016 19.5141 11.108C19.2055 10.7742 19.1267 10.7645 18.7506 11.0139ZM13.2009 11.3518C12.8372 11.4519 12.2743 11.9839 12.1101 12.3828C11.8429 13.0315 12.0217 13.3377 13.5848 14.9091C15.1778 16.5105 15.5831 16.7578 16.1964 16.5024C16.6354 16.3195 17.1417 15.7482 17.2355 15.33C17.3688 14.7356 17.0809 14.2977 15.5782 12.809C14.8198 12.0578 14.1797 11.4431 14.1558 11.4431C14.132 11.4431 13.9744 11.4041 13.8056 11.3565C13.6369 11.3089 13.3647 11.3068 13.2009 11.3518ZM13.2169 12.3791C12.8223 12.6103 13.0105 12.9212 14.3533 14.2574C15.077 14.9776 15.7425 15.5667 15.8323 15.5667C16.0211 15.5667 16.3177 15.2971 16.3177 15.1254C16.3177 14.9819 13.6322 12.2666 13.4946 12.2709C13.4406 12.2727 13.3156 12.3213 13.2169 12.3791ZM67.9857 13.6183L67.6413 13.9075L67.9134 14.2663C68.0631 14.4636 68.1856 14.6483 68.1856 14.6764C68.1856 14.7047 67.3898 15.3874 66.4174 16.1936C65.4449 16.9999 64.5864 17.7173 64.5098 17.7879C64.394 17.8945 64.4288 17.9791 64.7149 18.2877L65.0592 18.6591L66.9555 17.0615L68.8519 15.4639L69.1799 15.8174L69.5079 16.1709L69.8616 15.8883L70.2153 15.6056L69.2727 14.4674L68.3301 13.3291L67.9857 13.6183ZM9.80304 14.9439C9.6872 14.9911 9.30834 15.352 8.96105 15.7459L8.32972 16.4621L10.5993 18.4019L12.869 20.3417L13.198 19.9475L13.5271 19.5533L12.7185 18.889C12.2738 18.5237 11.9099 18.1896 11.9099 18.1467C11.9099 18.1038 12.0038 17.9486 12.1186 17.8019C12.695 17.0649 12.5948 16.4541 11.7749 15.7093C10.857 14.8753 10.4036 14.6993 9.80304 14.9439ZM9.92697 16.0645C9.83369 16.1682 9.75732 16.2788 9.75732 16.3102C9.75732 16.3415 10.0666 16.6328 10.4446 16.9573L11.1318 17.5474L11.3159 17.3188C11.5892 16.9794 11.5505 16.8685 10.9763 16.3495C10.4068 15.8344 10.1875 15.775 9.92697 16.0645ZM69.5354 18.6569C68.5018 19.3915 67.4289 20.1567 67.151 20.3575L66.6459 20.7225L66.9158 21.1325C67.0729 21.3713 67.2338 21.5135 67.3012 21.4728C67.3647 21.4344 67.7166 21.1868 68.0831 20.9225C69.3498 20.0091 69.2444 20.0396 69.5462 20.4982L69.8091 20.8977L68.8733 21.5569C68.3586 21.9195 67.8964 22.2448 67.8463 22.2801C67.7962 22.3152 67.8893 22.5303 68.0533 22.758L68.3514 23.1719L70.6005 21.5758C71.8375 20.698 72.9269 19.9242 73.0215 19.8563C73.1788 19.7435 73.1693 19.697 72.9096 19.3082L72.6258 18.8833L71.6102 19.6044L70.5945 20.3254L70.3126 19.986C70.1575 19.7993 70.0309 19.6217 70.0312 19.5912C70.0315 19.5607 70.49 19.2146 71.0502 18.822L72.0686 18.1084L71.7929 17.7161C71.6412 17.5002 71.494 17.3232 71.4658 17.3225C71.4376 17.3218 70.5689 17.9223 69.5354 18.6569ZM6.39779 19.3159L6.07859 19.845L6.81776 20.6182C7.7686 21.6127 8.29815 22.2099 8.16848 22.1412C8.1121 22.1114 7.52157 21.7512 6.8563 21.3407C6.19094 20.9302 5.63392 20.6114 5.61834 20.6321C5.60286 20.6528 5.49441 20.8321 5.37735 21.0305L5.16455 21.3913L7.62264 22.8862C8.97458 23.7083 10.1298 24.381 10.1898 24.381C10.2498 24.381 10.4081 24.2073 10.5417 23.9949L10.7846 23.6089L9.68157 22.4477C7.90555 20.578 7.90514 20.5975 9.69694 21.693C10.9326 22.4484 11.3496 22.6576 11.4176 22.5562C11.776 22.0217 11.799 21.8996 11.5691 21.7552C11.4465 21.678 10.3046 20.9787 9.03158 20.2009L6.717 18.7868L6.39779 19.3159ZM72.0547 23.3514C70.1119 24.3287 69.989 24.4043 69.7884 24.7459C69.2776 25.6155 69.9945 26.9078 70.9868 26.9059C71.555 26.9047 74.89 25.25 75.2016 24.8147C75.604 24.2522 75.3376 23.1606 74.7029 22.7713C74.1394 22.4257 73.706 22.5206 72.0547 23.3514ZM3.76832 24.0661L3.58873 24.5389L4.2014 25.2331C4.53834 25.615 4.91146 26.0157 5.03047 26.1237C5.43711 26.4925 5.24727 26.4805 4.25635 26.0751C3.71143 25.8521 3.23211 25.6696 3.19111 25.6696C3.10121 25.6696 2.75956 26.5011 2.82311 26.5652C2.84782 26.5899 4.08363 27.1106 5.56945 27.7223L8.27098 28.8343L8.3862 28.5597C8.68142 27.8561 8.70284 27.8925 7.7809 27.534C7.28652 27.3417 6.87168 27.1116 6.79398 26.9865C6.66 26.7707 6.66011 26.7707 7.88546 26.837L9.11081 26.9033L9.23577 26.5184C9.30445 26.3067 9.3845 26.0756 9.41372 26.0047C9.45503 25.9047 9.06961 25.8744 7.69008 25.8693L5.91335 25.8629L5.29832 25.1505C4.96005 24.7586 4.51784 24.248 4.31559 24.0157L3.9478 23.5934L3.76832 24.0661ZM72.2081 24.4116C71.2612 24.891 70.6207 25.277 70.5852 25.3899C70.5131 25.6182 70.7091 25.8758 70.9546 25.8758C71.1532 25.8758 73.9611 24.5477 74.2741 24.3057C74.4183 24.1944 74.451 24.0843 74.4003 23.8816C74.2928 23.4504 73.9364 23.5365 72.2081 24.4116ZM73.7209 27.394C73.5236 27.4772 73.3453 27.5615 73.3247 27.5814C73.2666 27.6377 74.466 30.618 74.5468 30.618C74.5862 30.618 74.7847 30.5481 74.988 30.4627L75.3575 30.3074L75.165 29.8184C75.0591 29.5494 74.7994 28.8886 74.5878 28.35C74.3762 27.8113 74.1753 27.3419 74.1414 27.3067C74.1075 27.2715 73.9182 27.3108 73.7209 27.394ZM1.45435 33.9771C1.45435 34.1748 0.150274 47.3725 0.0622212 48.0661L0 48.5558H3.89583H7.79167L7.84887 48.1692C7.88023 47.9566 8.00068 46.8316 8.1163 45.6692C8.23193 44.5069 8.35073 43.4052 8.38036 43.2208L8.43407 42.8858H9.30066C9.77731 42.8858 10.1673 42.9205 10.1672 42.9631C10.1672 43.0057 10.0519 44.177 9.91108 45.5661C9.77023 46.9553 9.65492 48.1963 9.65492 48.3238L9.65481 48.5558H13.4413H17.2276L17.2874 48.1176C17.3931 47.3419 17.8569 42.6467 17.8301 42.6244C17.8157 42.6126 17.0791 42.3517 16.1931 42.0446L14.5823 41.4861L16.2444 40.8334C17.1585 40.4744 17.9577 40.1282 18.0203 40.0642C18.111 39.9712 18.6805 34.703 18.6763 33.9942C18.6754 33.8256 18.426 33.8138 14.8826 33.8138C12.7966 33.8138 11.0869 33.8485 11.0832 33.8911C11.0796 33.9337 10.9527 35.221 10.8013 36.7519L10.5261 39.5353L9.62919 39.5651C8.95019 39.5877 8.73226 39.5627 8.73236 39.462C8.73236 39.3889 8.84768 38.1926 8.98853 36.8034C9.12937 35.4143 9.24469 34.1734 9.24469 34.0457L9.24479 33.8138H5.34957C1.86345 33.8138 1.45435 33.8309 1.45435 33.9771ZM20.2129 33.9771C20.2129 34.1751 18.9087 47.3732 18.8206 48.0674L18.7582 48.5584L22.4326 48.5313L26.107 48.5042L26.2284 47.3187C26.2951 46.6666 26.3528 46.1216 26.3565 46.1074C26.3602 46.0931 27.8969 46.0803 29.7716 46.0787L33.1799 46.0758L34.2624 45.1767C34.8579 44.6821 35.4937 44.1516 35.6755 43.9977L36.0058 43.7179L36.4609 39.1009C36.7112 36.5616 36.9374 34.3332 36.9635 34.1488L37.0109 33.8138H28.6119C21.0159 33.8138 20.2129 33.8294 20.2129 33.9771ZM38.4589 33.9771C38.4589 34.1748 37.1549 47.3725 37.0668 48.0661L37.0046 48.5558H40.8582H44.7118L44.7145 48.3238C44.7199 47.8769 45.0955 44.4243 45.144 44.3754C45.1711 44.3482 45.5527 45.2788 45.9922 46.4433L46.7913 48.5607L48.4234 48.5325L50.0556 48.5042L51.2006 46.3208C51.8304 45.1199 52.3615 44.1532 52.3807 44.1726C52.416 44.208 52.1382 47.3005 52.0264 48.1176L51.9664 48.5558H55.798H59.6295L60.3308 41.4167C60.7164 37.4903 61.0551 34.1734 61.0834 34.0457L61.1349 33.8138H57.297H53.4592L51.3192 37.7819C50.1422 39.9644 49.1462 41.7156 49.1057 41.6735C49.0653 41.6316 48.4099 39.9271 47.6492 37.8859C46.8886 35.8447 46.2344 34.0934 46.1955 33.9942C46.13 33.8269 45.8471 33.8138 42.2919 33.8138C38.8626 33.8138 38.4589 33.831 38.4589 33.9771ZM62.5478 33.9992C62.5478 34.1011 62.4325 35.2888 62.2915 36.6386C62.1506 37.9882 62.0353 39.111 62.0353 39.1336C62.0353 39.1561 63.7129 39.1745 65.7633 39.1745H69.4913L69.5549 38.7879C69.5898 38.5754 69.6189 38.2506 69.6196 38.0663L69.6207 37.7312H70.8014C71.9719 37.7312 71.9818 37.7333 71.9342 37.9632C71.9079 38.0908 71.8571 38.5083 71.8217 38.891L71.757 39.5869H70.9451C70.4985 39.5869 70.1323 39.5985 70.1311 39.6127C70.1299 39.6268 70.0621 40.2879 69.9804 41.0817C69.8987 41.8755 69.8304 42.6062 69.8288 42.7054C69.8261 42.8626 69.9323 42.8858 70.6538 42.8858H71.4821L71.4291 43.1693C71.3999 43.3252 71.3468 43.7195 71.311 44.0456L71.246 44.6383H70.1126H68.9792L69.0498 43.9167L69.1206 43.1951H65.3729C61.8724 43.1951 61.6251 43.2069 61.6243 43.3755C61.6238 43.4746 61.5085 44.6635 61.368 46.0173C61.2276 47.3712 61.1127 48.4961 61.1127 48.5172C61.1127 48.5385 64.4601 48.5558 68.5513 48.5558H75.9901L77.3668 47.4122C78.1241 46.7832 78.7437 46.2361 78.7437 46.1964C78.7437 46.1567 78.8359 45.2236 78.9487 44.1229C79.0615 43.0222 79.1537 42.0453 79.1537 41.952C79.1537 41.8238 78.8345 41.6875 77.8468 41.3935C77.1279 41.1796 76.5074 40.9754 76.4678 40.9397C76.4281 40.9041 77.075 40.6048 77.9052 40.2746L79.4147 39.6743L79.6515 37.1306C79.7817 35.7316 79.9134 34.4131 79.9441 34.2004L80 33.8138H71.2739C62.9427 33.8138 62.5478 33.8221 62.5478 33.9992ZM27.1384 38.0663C27.0898 38.3675 26.6708 42.5259 26.6708 42.7077C26.6708 42.749 27.077 42.7827 27.5735 42.7827H28.4764L28.6543 40.8497C28.7522 39.7867 28.8598 38.6501 28.8934 38.324L28.9546 37.7312H28.0736H27.1926L27.1384 38.0663ZM10.6687 51.132C10.1956 51.5283 9.77392 51.853 9.73169 51.8537C9.4376 51.8577 9.97443 52.9193 12.2603 56.8546C13.3142 58.669 14.2316 60.1409 14.2989 60.1256C14.3663 60.1102 15.5708 59.6878 16.9758 59.187L19.5302 58.2765L20.5413 59.2729L21.5523 60.2694L20.6143 62.9742C20.0983 64.4618 19.6932 65.6932 19.7139 65.7107C19.7346 65.7281 21.4721 66.7476 23.5748 67.9762L27.3979 70.2099L27.7499 70.042C27.9446 69.949 28.433 69.4759 28.8433 68.9827C29.2511 68.4925 29.8864 67.7436 30.2549 67.3183C30.6235 66.8931 31.0273 66.4133 31.1521 66.252L31.3793 65.9591L32.0233 66.171C32.3776 66.2876 32.9904 66.4554 33.3851 66.5438L34.1027 66.7046L34.608 69.4867L35.1132 72.2687L39.784 72.2419L44.4547 72.2151L44.6203 71.3904C44.7114 70.9368 44.9379 69.6987 45.1236 68.6391L45.4614 66.7126L45.9835 66.5939C46.2707 66.5286 46.8876 66.3615 47.3544 66.2225L48.2031 65.9697L48.4819 66.3042C48.6353 66.4882 49.3488 67.3305 50.0677 68.1757C50.7866 69.0211 51.3747 69.75 51.3747 69.7956C51.3747 69.8412 51.3264 69.8946 51.2673 69.9143C51.1983 69.9375 51.2184 70.091 51.3237 70.3443C51.4474 70.6421 51.5301 70.7227 51.6617 70.6741C51.7575 70.6387 52.2601 70.4423 52.7786 70.2375C53.6692 69.8857 53.7185 69.8504 53.6726 69.5969C53.6266 69.342 53.7714 69.2427 56.5741 67.6084C58.1964 66.6623 59.6046 65.8572 59.7032 65.8191C59.8019 65.781 59.8823 65.6969 59.882 65.6321C59.8817 65.5672 59.4668 64.3381 58.9601 62.9006L58.0388 60.2869L59.045 59.2798L60.0513 58.2727L62.6972 59.2024L65.3432 60.1321L65.5299 59.8851C65.6326 59.7492 66.1257 58.919 66.6259 58.0401C69.0685 53.7476 69.5529 52.9201 69.7469 52.7092C69.9335 52.5061 69.9421 52.4466 69.8253 52.163C69.7532 51.988 69.3433 51.5224 68.9143 51.1285L68.1343 50.4121L61.1072 50.4117L54.08 50.4114L53.5351 51.1323C52.7945 52.112 51.2084 53.6199 50.0643 54.432C45.4222 57.7268 39.5433 58.602 34.1271 56.8044C32.8045 56.3654 30.6941 55.2839 29.5491 54.4581C28.4311 53.652 26.6994 52.0246 25.9453 51.0715L25.4231 50.4114H18.4759H11.5288L10.6687 51.132ZM70.2016 53.1206C70.0101 53.4733 69.6434 54.1658 69.3869 54.6594L68.9203 55.5569L71.327 56.8175C72.6507 57.5108 73.7795 58.1639 73.8355 58.269C73.9083 58.4058 73.8918 58.5516 73.7774 58.7823C73.6894 58.9595 73.6293 59.1128 73.6436 59.123C73.658 59.1331 74.0156 59.3311 74.4385 59.563L75.2072 59.9845L75.4891 59.4762C75.6442 59.1966 75.771 58.9503 75.771 58.9289C75.771 58.9074 75.6326 58.8322 75.4635 58.7618C75.2944 58.6914 75.156 58.5852 75.156 58.5259C75.156 58.4095 76.1472 56.4982 76.2813 56.3561C76.326 56.3088 76.5051 56.3442 76.6793 56.4348L76.9963 56.5996L77.2517 56.0926C77.5462 55.5081 77.5658 55.5394 76.5993 55.0523L75.9412 54.7205L75.7777 54.9384C75.6003 55.175 75.6282 55.1878 71.4947 52.9834L70.5498 52.4795L70.2016 53.1206ZM6.32778 54.1288C4.6388 54.8671 3.24154 55.4868 3.22268 55.5058C3.16036 55.5684 3.52487 56.3907 3.61497 56.3907C3.66356 56.3907 4.49826 56.0445 5.47002 55.6215C6.44177 55.1984 7.24552 54.8622 7.25618 54.8741C7.26674 54.8861 6.50071 55.3953 5.55376 56.0057L3.83218 57.1155L4.01331 57.5006C4.11304 57.7123 4.21227 57.9364 4.2339 57.9987C4.25963 58.0726 4.91413 57.9404 6.11631 57.6187C7.12999 57.3474 7.97372 57.1397 7.99114 57.1574C8.00867 57.175 7.23916 57.5267 6.28114 57.9391L4.53936 58.6889L4.69753 59.0604C4.78446 59.2648 4.87948 59.4899 4.90859 59.5607C4.9377 59.6317 4.97676 59.6896 4.99541 59.6896C5.0275 59.6896 11.2267 56.9985 11.2586 56.9707C11.3208 56.9164 10.6273 55.5665 10.5381 55.5683C10.4751 55.5696 9.50105 55.8209 8.37349 56.1267C7.24593 56.4324 6.31548 56.6747 6.30574 56.6649C6.29601 56.6552 7.05711 56.1515 7.99709 55.5455C8.93707 54.9396 9.7894 54.3819 9.89129 54.3061C10.0676 54.1751 10.0617 54.1347 9.76747 53.4754C9.59751 53.0944 9.44488 52.7833 9.42848 52.7845C9.41198 52.7855 8.01667 53.3904 6.32778 54.1288ZM70.6661 54.4863C70.5422 54.7429 70.4407 54.971 70.4407 54.9931C70.4407 55.045 74.5625 57.2313 74.5878 57.1929C74.5984 57.177 74.7284 56.9504 74.8769 56.6894L75.1469 56.215L73.0623 55.1173C71.9158 54.5136 70.9583 54.0196 70.9346 54.0196C70.911 54.0196 70.7902 54.2296 70.6661 54.4863ZM9.07176 59.698L6.18838 61.559L6.77532 62.4542C7.09822 62.9465 7.44991 63.5 7.55683 63.6844C7.66384 63.8687 7.78859 64.0194 7.834 64.0194C7.87941 64.0194 8.09806 63.8987 8.31978 63.7511L8.72283 63.4828L8.53391 63.2098C8.43007 63.0597 8.20108 62.7191 8.02507 62.4529L7.70515 61.9689L8.14183 61.6727C8.382 61.5099 8.74507 61.2755 8.94865 61.152L9.3187 60.9276L9.69684 61.5438L10.075 62.1599L10.5056 61.8903C10.7424 61.7419 10.9448 61.6142 10.9554 61.6065C10.9661 61.5986 10.7989 61.3149 10.5839 60.976L10.1932 60.3597L10.9162 59.8754C11.314 59.6091 11.6733 59.4122 11.7147 59.4379C11.756 59.4636 11.9876 59.8071 12.2295 60.2011L12.6691 60.9176L13.0327 60.6995C13.2327 60.5795 13.4342 60.4482 13.4806 60.4078C13.527 60.3674 13.2027 59.7725 12.76 59.0857L11.9551 57.8371L9.07176 59.698ZM67.7757 58.0528C67.4148 58.1976 67.0707 58.5431 66.8431 58.9896C66.4519 59.7567 66.677 60.5344 67.442 61.0586C68.578 61.8372 70.8142 63.2006 71.1232 63.3031C71.6323 63.4721 72.0832 63.3514 72.5136 62.931C73.0347 62.4218 73.2748 61.7625 73.1238 61.2554C72.9612 60.7097 72.5646 60.3744 70.6675 59.1788C68.698 57.9377 68.3757 57.8122 67.7757 58.0528ZM67.8986 59.2978C67.6201 59.5779 67.7623 59.8791 68.365 60.2858C69.9066 61.3261 71.3487 62.1638 71.5977 62.1638C71.8992 62.1638 72.1269 61.8537 72.0363 61.5666C71.9605 61.3265 68.5658 59.1741 68.2628 59.1741C68.1301 59.1741 67.9662 59.2298 67.8986 59.2978ZM13.2282 62.461L12.3712 64.0068L10.7311 64.702C9.82907 65.0843 9.05649 65.4258 9.01425 65.4607C8.97213 65.4957 9.11051 65.6937 9.32177 65.9009L9.70607 66.2776L10.8663 65.767C11.5045 65.4863 12.045 65.2565 12.0676 65.2565C12.09 65.2565 11.8101 65.7728 11.4455 66.4038L10.7825 67.5511L11.1178 67.9244C11.3022 68.1297 11.4951 68.3141 11.5466 68.3341C11.5979 68.3541 12.0367 67.6599 12.5217 66.7913L13.4032 65.2121L14.5273 64.7238C15.1455 64.4552 15.879 64.1395 16.1571 64.0222L16.6627 63.809L16.2739 63.4086L15.8851 63.0082L14.7688 63.5045C14.1549 63.7775 13.6525 63.9888 13.6525 63.9741C13.6525 63.9595 13.9289 63.4665 14.2666 62.8786L14.8807 61.8097L14.4973 61.3955C14.2863 61.1677 14.1074 60.9665 14.0995 60.9482C14.0916 60.93 13.6995 61.6107 13.2282 62.461ZM64.9449 61.7545C64.7693 61.8676 64.3394 62.2914 63.9895 62.6962C63.3777 63.4041 63.3605 63.439 63.54 63.6118C64.2887 64.3325 68.4413 67.936 68.4972 67.9136C68.6612 67.8475 69.7538 66.5117 69.9438 66.1451C70.318 65.4227 70.0269 64.7563 68.9965 63.9774C68.4193 63.541 68.2987 63.4905 67.9077 63.5218C67.4716 63.5567 67.4681 63.5543 67.4681 63.2167C67.4681 62.9552 67.3602 62.7606 67.0012 62.3746C66.2362 61.5522 65.5704 61.3514 64.9449 61.7545ZM65.1292 63.0199L64.9072 63.2577L65.2907 63.6161C66.1161 64.3876 66.1096 64.3842 66.3405 64.174C66.6711 63.8732 66.6036 63.4641 66.1634 63.0991C65.7072 62.7209 65.4285 62.6995 65.1292 63.0199ZM67.2283 64.8268L66.9503 65.1187L67.6838 65.7599L68.4174 66.4012L68.6506 66.1808C69.1208 65.7366 69.0204 65.3895 68.2619 64.8368C67.7454 64.4606 67.5787 64.459 67.2283 64.8268ZM61.3641 65.2725C61.0285 65.5527 60.7617 65.8147 60.7712 65.8547C60.7851 65.9136 64.1735 71.7653 64.2243 71.8182C64.2325 71.8268 64.4169 71.6784 64.6342 71.4887L65.0292 71.1438L64.7148 70.591L64.4003 70.0382L64.8787 69.6672L65.357 69.2962L65.8122 69.6993C66.305 70.1356 66.285 70.1372 66.8679 69.6084L67.139 69.3623L66.2529 68.5693C65.7654 68.1332 64.6034 67.0984 63.6705 66.2697L61.9745 64.763L61.3641 65.2725ZM15.8052 66.8817C14.6494 67.9287 13.4962 68.9661 13.2425 69.187L12.7812 69.5887L13.1913 69.9409L13.6013 70.2932L14.0152 69.8882C14.2429 69.6655 14.4657 69.4832 14.5105 69.4832C14.5552 69.4832 14.7931 69.6491 15.039 69.8518L15.4863 70.2203L15.1664 70.743L14.8467 71.2657L15.2949 71.65L15.7429 72.0343L17.4698 69.032L19.1965 66.0297L18.7053 65.5846C18.435 65.3398 18.1449 65.1032 18.0603 65.0589C17.9482 65.0001 17.3361 65.4949 15.8052 66.8817ZM62.362 66.6482C62.577 67.0172 63.6178 68.7518 63.7397 68.9443L63.888 69.1785L64.2569 68.8957L64.6256 68.6128L64.0736 68.1156C62.9224 67.0788 62.304 66.5487 62.362 66.6482ZM16.3931 67.7036L15.2897 68.7031L15.5971 69.0123C15.7981 69.2145 15.9393 69.2864 16.005 69.2203C16.1004 69.1245 17.5562 66.6974 17.5157 66.7019C17.5051 66.7031 17 67.1538 16.3931 67.7036ZM19.0154 70.1783L17.2752 73.1429L17.7447 73.4154C18.0028 73.5653 18.2455 73.6689 18.2838 73.6457C18.3223 73.6224 18.6613 73.0707 19.0373 72.4196C19.4133 71.7685 19.7394 71.2358 19.7622 71.2358C19.7848 71.2358 20.0073 71.3634 20.2564 71.5193L20.7093 71.8028L19.9618 73.0486L19.2142 74.2945L19.6664 74.5692C19.9152 74.7203 20.1527 74.8439 20.1942 74.8439C20.2358 74.8439 21.04 73.5339 21.9813 71.9328C23.3 69.69 23.6642 68.9954 23.5674 68.9075C23.4983 68.8447 23.2787 68.6958 23.0794 68.5765L22.7169 68.3597L22.0543 69.498C21.6899 70.1239 21.3608 70.6867 21.3229 70.7485C21.2769 70.8236 21.099 70.7779 20.7848 70.6103C20.5267 70.4726 20.3154 70.3332 20.3154 70.3005C20.3154 70.2679 20.6393 69.6929 21.0353 69.0227C21.4312 68.3524 21.7426 67.7944 21.7272 67.7824C21.7118 67.7706 21.487 67.6377 21.2275 67.4872L20.7558 67.2135L19.0154 70.1783ZM58.0584 67.7439C57.0542 68.2438 56.8251 69.1262 57.426 70.1799L57.735 70.7219L58.1356 70.5164C58.3559 70.4034 58.5609 70.2706 58.5912 70.2213C58.6215 70.1721 58.5208 69.8947 58.3675 69.6048L58.0888 69.0778L58.3101 68.8546C58.6439 68.5181 58.9712 68.6529 59.3012 69.2627C59.6396 69.888 59.64 69.9481 59.3081 70.2574L59.0411 70.5063L59.2747 70.8968C59.4031 71.1115 59.5194 71.3027 59.5329 71.3214C59.5464 71.3402 59.658 71.3014 59.7808 71.2353C60.1466 71.0385 60.4272 71.1907 60.781 71.7779C61.192 72.46 61.2177 72.8548 60.8566 72.9459C60.4754 73.0421 60.3278 72.9458 59.9764 72.3714L59.6574 71.8501L59.2831 72.0748C59.0772 72.1985 58.8698 72.3339 58.822 72.3756C58.7041 72.4788 59.3634 73.4961 59.7726 73.8424C60.3528 74.3334 61.2445 74.1732 61.9327 73.4544C62.2432 73.1301 62.2904 73.0146 62.2828 72.5958C62.2666 71.6932 61.4029 70.3721 60.7484 70.2486C60.4497 70.1922 60.414 70.1558 60.4999 69.9944C60.7544 69.5162 60.3708 68.5252 59.6934 67.9111C59.1851 67.4502 58.7398 67.4047 58.0584 67.7439ZM23.4857 72.6946C22.7851 74.4042 22.1986 75.8355 22.1827 75.8753C22.1392 75.9832 23.211 76.4072 23.2943 76.3151C23.3338 76.2713 23.909 75.5166 24.5725 74.6378C25.236 73.7589 25.8443 72.9703 25.9241 72.8852C26.0889 72.7098 25.996 72.9622 25.0414 75.2835C24.6972 76.1206 24.4156 76.8242 24.4156 76.8471C24.4156 76.9469 25.3787 77.2483 25.4116 77.1588C25.4315 77.1047 26.0173 75.6687 26.7134 73.9677L27.9789 70.8749L27.6484 70.757C27.4665 70.6922 27.1779 70.5664 27.0069 70.4774L26.6959 70.3157L25.6024 71.7551C25.0009 72.5468 24.4885 73.1945 24.4637 73.1945C24.4145 73.1945 24.5656 72.8018 25.2748 71.0864C25.5315 70.4656 25.7315 69.9513 25.7193 69.9434C25.6742 69.9146 24.8205 69.5863 24.7906 69.5863C24.7736 69.5863 24.1864 70.985 23.4857 72.6946ZM53.681 70.1785C53.3428 70.317 53.051 70.445 53.0328 70.4628C53.0144 70.4805 53.0962 71.2947 53.2145 72.2719C53.3327 73.2492 53.4169 74.0616 53.4013 74.0772C53.3858 74.0928 53.0814 73.3692 52.725 72.4692L52.0767 70.833L51.6156 71.0151C51.362 71.1152 51.1485 71.2175 51.1413 71.2423C51.1339 71.267 51.6947 72.7116 52.3875 74.4524L53.6471 77.6175L54.1767 77.4076C54.4679 77.2922 54.7142 77.1897 54.724 77.1798C54.734 77.1698 54.631 76.2343 54.4952 75.1007C54.3595 73.9673 54.2499 72.9471 54.2516 72.8337C54.2533 72.7203 54.6167 73.5321 55.0591 74.6378C55.5015 75.7434 55.9028 76.6473 55.951 76.6464C56.1611 76.6423 56.8075 76.3658 56.8075 76.28C56.8075 76.198 54.3553 69.9642 54.3123 69.9368C54.3033 69.9312 54.0193 70.0398 53.681 70.1785ZM28.5168 72.6908C28.1546 74.1199 28.097 74.7515 28.2952 75.1237C28.4875 75.4851 29.0884 75.8888 29.5208 75.947L29.9184 76.0007L29.587 77.264L29.2556 78.5274L29.8163 78.6536C30.1246 78.7229 30.3886 78.7641 30.4028 78.7448C30.417 78.7256 30.785 77.2949 31.2207 75.5656C31.6563 73.8362 32.0338 72.3482 32.0594 72.2589C32.0948 72.1355 31.9781 72.0668 31.5741 71.973C31.2007 71.8863 31.0222 71.8822 30.9748 71.9594C30.9377 72.0198 30.7545 72.6723 30.5676 73.4096C30.2016 74.8537 30.082 75.0313 29.5988 74.8465C29.2549 74.715 29.2597 74.5169 29.6434 72.9883C29.8126 72.3145 29.951 71.7197 29.951 71.6664C29.951 71.5825 29.2063 71.3389 28.9498 71.3389C28.9001 71.3389 28.7052 71.9472 28.5168 72.6908ZM49.5808 71.7023C49.5244 71.7231 49.2876 71.7894 49.0546 71.8495L48.631 71.9588L48.5421 73.8355L48.4532 75.7122L48.0461 73.9356C47.7664 72.7147 47.6003 72.174 47.5152 72.2068C47.4471 72.2331 47.2268 72.2856 47.0254 72.3237C46.8241 72.3616 46.6594 72.4481 46.6594 72.5158C46.6594 72.5837 47.0053 74.089 47.4282 75.8612C47.851 77.6334 48.197 79.0994 48.197 79.1192C48.197 79.1721 49.2327 78.8881 49.3051 78.8153C49.3391 78.7812 49.3825 77.8852 49.4014 76.8243C49.4205 75.7635 49.4622 74.7795 49.4942 74.6378C49.5338 74.4623 49.7075 75.0305 50.0386 76.4183C50.3061 77.5395 50.5491 78.481 50.5786 78.5106C50.608 78.5403 50.8466 78.5102 51.1088 78.4438C51.47 78.3523 51.5738 78.2826 51.538 78.1556C51.512 78.0636 51.1546 76.5617 50.7436 74.8182C49.989 71.616 49.9679 71.5594 49.5808 71.7023ZM32.8999 75.8863C32.6896 77.7721 32.5282 79.3244 32.5412 79.3356C32.5938 79.3812 35.428 79.6791 35.464 79.6428C35.4853 79.6214 35.5107 79.3798 35.5202 79.1059L35.5375 78.6081L34.6662 78.5043L33.7949 78.4006L33.8983 77.4728C33.9551 76.9625 34.0474 76.5509 34.1034 76.5581C34.1592 76.5654 34.4933 76.6025 34.8456 76.6406L35.4863 76.7098L35.4877 76.4212C35.4884 76.2625 35.5163 76.0303 35.5496 75.9053C35.6159 75.6565 35.5629 75.6337 34.6326 75.5122L34.1376 75.4474L34.2082 74.656C34.2471 74.2208 34.3146 73.8258 34.3583 73.7784C34.4021 73.731 34.8233 73.7391 35.2944 73.7964C35.7655 73.8537 36.157 73.8924 36.1642 73.8825C36.1715 73.8726 36.199 73.6286 36.2252 73.3402L36.273 72.8157L35.034 72.6877C34.3524 72.6173 33.6796 72.5367 33.5387 72.5086L33.2824 72.4575L32.8999 75.8863ZM44.7626 72.7759C44.6145 72.8365 44.4141 73.2548 44.0451 74.2743L43.533 75.6888L43.4097 74.3263C43.342 73.577 43.2642 72.9413 43.2369 72.9139C43.2097 72.8865 42.9537 72.8964 42.6682 72.9358C42.2262 72.997 42.1494 73.0407 42.151 73.23C42.1539 73.5884 42.7514 79.8148 42.7849 79.8365C42.8017 79.8475 43.0575 79.8375 43.3536 79.8144C43.9711 79.7662 43.9458 79.8472 43.7944 78.4006C43.7332 77.8157 43.7432 77.5082 43.8287 77.3434C43.9402 77.1283 43.9951 77.2041 44.5577 78.3485L45.1662 79.5861H45.6907C45.9792 79.5861 46.2435 79.5576 46.2782 79.5227C46.3128 79.4879 45.936 78.6413 45.4407 77.6413L44.5403 75.8233L44.9343 74.7924C45.1511 74.2254 45.4197 73.518 45.5312 73.2203L45.734 72.679L45.351 72.6855C45.1404 72.6891 44.8756 72.7299 44.7626 72.7759ZM38.3751 73.1976C38.1667 73.3254 37.9553 73.5874 37.8292 73.874C37.6444 74.2942 37.6217 74.5866 37.6056 76.7481L37.5876 79.1546L37.8439 79.4352C38.6259 80.2914 40.0617 80.1506 40.5259 79.1724C40.6196 78.9747 40.7281 78.4766 40.7668 78.0655L40.8374 77.3181H40.2772H39.7171L39.6629 77.9977C39.633 78.3715 39.561 78.7252 39.5027 78.7838C39.3498 78.9376 38.862 78.9147 38.7509 78.7485C38.649 78.596 38.7451 74.8879 38.8624 74.4467C38.9603 74.0785 39.2036 73.9516 39.5272 74.0999C39.7686 74.2106 39.7915 74.2747 39.7915 74.8418V75.4625H40.3688H40.946L40.8962 74.6825C40.8399 73.7992 40.6596 73.4602 40.0917 73.1689C39.6086 72.9211 38.8041 72.9346 38.3751 73.1976Z" fill="white"/>
</svg>
