<svg width="60" height="52" viewBox="0 0 60 52" fill="none" xmlns="http://www.w3.org/2000/svg">
<path d="M45 4.76633e-08L60 26L45 52H15L0 26L15 0L45 4.76633e-08Z" fill="black"/>
<path d="M45 4.76633e-08L15 52L0 26L15 0L45 4.76633e-08Z" fill="#424653"/>
<path fill-rule="evenodd" clip-rule="evenodd" d="M25.6898 12.0308C25.6528 12.0448 25.5669 12.1104 25.499 12.1765L25.3755 12.2966V13.259V14.2214L26.6888 15.5998C27.4111 16.358 28.0671 17.0076 28.1465 17.0436C28.2465 17.0888 28.4782 17.1089 28.8986 17.1089H29.5061V17.4152C29.5061 17.6655 29.4918 17.7263 29.4276 17.7481C28.8754 17.935 28.4278 18.3396 28.169 18.8856C28.0207 19.1983 28.003 19.2765 27.9871 19.6901C27.9672 20.2064 28.0555 20.5774 28.2902 20.9638C28.7152 21.6637 29.5662 22.0709 30.3408 21.9449C31.137 21.8154 31.8129 21.1983 32.0387 20.3945C32.2066 19.7969 32.0694 19.3492 31.7061 19.3091C31.373 19.2724 31.2251 19.4196 31.143 19.8696C31.1084 20.0593 31.0295 20.3047 30.9676 20.415C30.7548 20.7942 30.2953 21.0078 29.852 20.9338C29.2626 20.8354 28.8361 20.1824 28.966 19.5772C29.0686 19.0989 29.3926 18.7924 29.8922 18.7012C30.4453 18.6002 30.4939 18.5172 30.4939 17.674V17.062H31.0944C31.4247 17.062 31.7631 17.0485 31.8464 17.032C31.969 17.0078 32.2439 16.7468 33.2876 15.6635C33.9969 14.9273 34.6081 14.2571 34.6458 14.1741C34.7461 13.9534 34.7443 12.5235 34.6435 12.3015C34.4982 11.9818 34.7377 11.9973 30.0157 12.0015C27.6735 12.0035 25.7268 12.0167 25.6898 12.0308ZM27.1265 20.9886C27.0895 21.0036 25.8238 21.9304 24.3139 23.0482L21.5686 25.0805L20.5649 25.0808C20.0129 25.0809 19.4867 25.1026 19.3957 25.129C19.3047 25.1554 19.1785 25.2413 19.1151 25.3199L19 25.4628L19.0002 30.5353C19.0003 35.4802 19.0025 35.6114 19.0878 35.7575C19.1459 35.857 19.2326 35.9246 19.3458 35.9588C19.468 35.9957 22.5216 36.0064 30.1272 35.9965L40.738 35.9828L40.869 35.8296L41 35.6765V30.5917C41 26.8491 40.9863 25.4756 40.9482 25.3882C40.8322 25.1223 40.7589 25.106 39.5633 25.0805L38.4633 25.0571L35.7245 23.0461C34.2182 21.94 32.9291 21.0144 32.8599 20.9891C32.7654 20.9546 32.6842 20.9631 32.5335 21.0232C32.1683 21.1688 32.1019 21.5456 32.3913 21.8297C32.4713 21.9082 33.496 22.6665 34.6684 23.5148L36.8002 25.0571L33.3965 25.0691C31.5246 25.0757 28.4812 25.0757 26.6336 25.0691L23.2743 25.0571L25.4741 23.44C26.889 22.3999 27.6964 21.7775 27.737 21.6956C27.818 21.5318 27.8167 21.4051 27.7319 21.2338C27.6241 21.0162 27.3417 20.9018 27.1265 20.9886ZM25.3395 28.5351C25.0644 28.6768 25.0612 28.6997 25.0612 30.5434C25.0612 32.3831 25.0658 32.4167 25.3368 32.5631C25.528 32.6663 25.7443 32.6171 25.8891 32.4373L26.0041 32.2946V30.5844C26.0041 28.6887 26.002 28.6738 25.7187 28.5334C25.5303 28.44 25.5243 28.44 25.3395 28.5351ZM22.3366 28.5722C22.0596 28.698 22.0531 28.744 22.0531 30.5668C22.0531 32.3809 22.058 32.4169 22.3286 32.5631C22.5084 32.6601 22.7231 32.6195 22.8653 32.4615L22.9735 32.3412L22.9863 30.6343C23.0006 28.7283 22.9965 28.6985 22.7026 28.5702C22.5192 28.4902 22.5171 28.4902 22.3366 28.5722ZM28.3156 28.5756C28.047 28.714 28.0482 28.7055 28.0328 30.473C28.0234 31.5461 28.035 32.1492 28.0675 32.2641C28.1828 32.6725 28.6705 32.7634 28.9327 32.4253C29.003 32.3346 29.0104 32.1632 29.0113 30.589C29.0123 28.687 29.017 28.722 28.7424 28.5736C28.5806 28.4863 28.4879 28.4867 28.3156 28.5756ZM31.3116 28.5743C31.0375 28.6986 31.0279 28.7735 31.0423 30.667L31.0551 32.3565L31.2017 32.4933C31.3115 32.5957 31.3931 32.63 31.5265 32.63C31.6599 32.63 31.7415 32.5957 31.8513 32.4933L31.998 32.3565L32.0108 30.6634C32.0252 28.7721 32.0182 28.7206 31.7296 28.5775C31.5493 28.4882 31.502 28.4878 31.3116 28.5743ZM34.3243 28.5704C34.0456 28.7006 34.0408 28.7356 34.0408 30.6547V32.3884L34.1558 32.5311C34.3044 32.7156 34.516 32.7597 34.7339 32.6518C34.8236 32.6073 34.9215 32.5262 34.9516 32.4716C34.9918 32.3984 35.0061 31.9057 35.0061 30.6029V28.8337L34.8714 28.6932C34.7088 28.5235 34.5169 28.4805 34.3243 28.5704ZM37.2879 28.5792C37.0139 28.7204 37.0041 28.7891 37.0041 30.5637C37.0041 32.2805 37.0173 32.3952 37.2338 32.5536C37.4569 32.7167 37.8159 32.6203 37.9417 32.3635C38.0059 32.2323 38.0118 28.9864 37.9481 28.8115C37.899 28.6767 37.6574 28.5034 37.5204 28.5049C37.471 28.5053 37.3664 28.5388 37.2879 28.5792Z" fill="white"/>
</svg>
