<svg width="148" height="128" viewBox="0 0 148 128" fill="none" xmlns="http://www.w3.org/2000/svg">
<path d="M110.767 0.265626L147.553 63.9807L110.767 127.696H37.1951L0.40918 63.9807L37.1951 0.265625L110.767 0.265626Z" fill="black"/>
<path d="M110.767 0.265626L37.1951 127.696L0.40918 63.9807L37.1951 0.265625L110.767 0.265626Z" fill="#424653"/>
<path d="M68.4365 25L65.6094 33.6396C61.3328 34.8191 57.4218 36.8734 54.0811 39.6045L56.0879 35.2422L52.5605 33.3232C51.392 32.6887 49.9458 32.8984 49.0068 33.8389L42.4883 40.3545L46.6074 48.4814C44.4997 52.1936 43.1079 56.3651 42.6611 60.8213L41 56.3301L37.1504 57.4697C35.8754 57.8462 35 59.0177 35 60.3467V69.5635L43.6396 72.3906C44.8191 76.6672 46.8734 80.5782 49.6045 83.9189L45.2422 81.9121L43.3232 85.4395C42.6887 86.608 42.8984 88.0542 43.8389 88.9932L50.3545 95.5117L58.4814 91.3926C62.1936 93.5003 66.3651 94.8921 70.8213 95.3389L66.3301 97L67.4697 100.85C67.8462 102.125 69.0177 103 70.3467 103H79.5635L82.3906 94.3604C86.6672 93.1809 90.5782 91.1266 93.9189 88.3955L91.9121 92.7578L95.4395 94.6768C96.608 95.3113 98.0542 95.1016 98.9932 94.1611L105.512 87.6455L101.393 79.5186C103.5 75.8064 104.892 71.6349 105.339 67.1787L107 71.6699L110.85 70.5303C112.125 70.1538 113 68.9823 113 67.6533V58.4365L104.36 55.6094C103.181 51.3328 101.127 47.4218 98.3955 44.0811L102.758 46.0879L104.677 42.5605C105.311 41.392 105.102 39.9458 104.161 39.0068L97.6455 32.4883L89.5186 36.6074C85.8064 34.4997 81.6349 33.1079 77.1787 32.6611L81.6699 31L80.5303 27.1504C80.1538 25.8754 78.9823 25 77.6533 25H68.4365ZM74 40C87.2555 40 98 50.7445 98 64C98 77.254 87.2555 88 74 88C60.7445 88 50 77.254 50 64C50 50.7445 60.7445 40 74 40ZM74 46C64.0595 46 56 54.0595 56 64C56 73.9405 64.0595 82 74 82C83.9405 82 92 73.9405 92 64C92 54.0595 83.9405 46 74 46ZM74 58C77.3135 58 80 60.6865 80 64C80 67.3135 77.3135 70 74 70C70.6865 70 68 67.3135 68 64C68 60.6865 70.6865 58 74 58Z" fill="white"/>
</svg>
