<svg width="65" height="56" viewBox="0 0 65 56" fill="none" xmlns="http://www.w3.org/2000/svg">
<path d="M48.75 5.13297e-08L65 28L48.75 56H16.25L0 28L16.25 0L48.75 5.13297e-08Z" fill="#E6E7E8"/>
<path d="M49 5.13297e-08L16.3333 56L0 28L16.3333 0L49 5.13297e-08Z" fill="white"/>
<path fill-rule="evenodd" clip-rule="evenodd" d="M16.6601 15.1662C16.42 15.2876 16.2868 15.4212 16.1657 15.662C15.9573 16.0764 15.9573 16.2872 16.1657 16.7017C16.4146 17.1966 16.7951 17.3636 17.673 17.3636H18.3571L18.3568 21.3707L18.3565 25.3778L17.8228 25.6534C17.0356 26.0599 16.3936 26.5012 16.2069 26.7642C15.8403 27.2804 16.0767 28.1432 16.6674 28.4455C17.1862 28.7109 17.3976 28.6569 18.394 28.0047C19.0283 27.5894 19.8265 27.2409 20.6277 27.0294C21.4322 26.8169 22.9041 26.7655 23.7823 26.9192C27.4345 27.5585 30.1429 30.7591 30.1429 34.4358V35.0909H33.6786C35.6232 35.0909 37.2143 35.0804 37.2143 35.0676C37.2143 35.0547 37.2491 34.8469 37.2917 34.6059C37.6703 32.4623 39.0274 30.6877 40.9825 29.7796C41.8015 29.3991 42.3948 29.2545 43.345 29.2035C44.4632 29.1434 45.3847 29.3191 46.5187 29.8083C46.6463 29.8634 46.6512 29.7607 46.6292 27.4742C46.6066 25.1446 46.6015 25.0723 46.4323 24.6973C46.2264 24.2406 45.6737 23.6967 45.1856 23.4706L44.8382 23.3097H38.1045H31.3709L30.4248 20.4659C29.9045 18.9018 29.4602 17.564 29.4376 17.4929C29.4012 17.379 29.452 17.3636 29.8645 17.3636C30.5094 17.3636 30.9317 17.1471 31.1557 16.7017C31.3642 16.2872 31.3642 16.0764 31.1557 15.662C31.0346 15.4212 30.9014 15.2876 30.6613 15.1662L30.3326 15H23.6607H16.9888L16.6601 15.1662ZM40.051 15.0868C38.7128 15.3427 37.544 16.5408 37.2941 17.9127C37.2502 18.1538 37.2143 19.0595 37.2143 19.9255V21.5H38.3929H39.5714V19.849C39.5714 18.2541 39.5771 18.1895 39.7389 17.9488C40.0293 17.5167 40.3343 17.3636 40.9048 17.3636C41.7932 17.3636 41.9286 17.2074 41.9286 16.1818C41.9286 15.4506 41.8515 15.2036 41.5855 15.082C41.3733 14.9851 40.5698 14.9876 40.051 15.0868ZM20.7143 20.9925V24.6213L21.0642 24.5782C23.0336 24.3354 24.6908 24.5559 26.4205 25.2911L27.1932 25.6194L27.4896 25.4724C27.9023 25.2676 28.3986 24.6875 28.7214 24.0326L28.9945 23.4784L27.9791 20.4211L26.9638 17.3636H23.839H20.7143V20.9925ZM33.767 25.725C33.6417 25.8506 33.6417 28.9676 33.767 29.0932C33.8873 29.2139 35.2377 29.2139 35.358 29.0932C35.4833 28.9676 35.4833 25.8506 35.358 25.725C35.3015 25.6683 35.0143 25.6364 34.5625 25.6364C34.1107 25.6364 33.8235 25.6683 33.767 25.725ZM37.3027 25.725C37.1775 25.8506 37.1775 28.9676 37.3027 29.0932C37.423 29.2139 38.7734 29.2139 38.8937 29.0932C39.019 28.9676 39.019 25.8506 38.8937 25.725C38.8373 25.6683 38.55 25.6364 38.0982 25.6364C37.6465 25.6364 37.3592 25.6683 37.3027 25.725ZM21.4255 28.1351C21.3584 28.2094 21.3036 28.3716 21.3036 28.4956C21.3036 28.7033 21.2759 28.7279 20.9537 28.8076C20.7613 28.8551 20.2937 29.0444 19.9146 29.2281L19.2254 29.5621L19.0627 29.4089C18.766 29.1294 18.5892 29.2043 17.8952 29.9035C17.2024 30.6014 17.1289 30.7765 17.405 31.0712L17.5578 31.2343L17.2247 31.9253C17.0415 32.3055 16.8528 32.7743 16.8053 32.9673C16.7247 33.2955 16.7038 33.3182 16.4814 33.3182C16.0605 33.3182 16 33.4685 16 34.5129C16 35.5449 16.0578 35.6818 16.4943 35.6818C16.7013 35.6818 16.7259 35.7096 16.8053 36.0327C16.8528 36.2257 17.0415 36.6945 17.2247 37.0747L17.5578 37.7657L17.405 37.9288C17.1289 38.2235 17.2024 38.3986 17.8952 39.0965C18.5892 39.7957 18.766 39.8706 19.0627 39.5911L19.2254 39.4379L19.9146 39.7719C20.2937 39.9556 20.7613 40.1449 20.9537 40.1924C21.281 40.2733 21.3036 40.2943 21.3036 40.5172C21.3036 40.9393 21.4535 41 22.495 41C23.5227 41 23.6607 40.9417 23.6607 40.5077C23.6607 40.2982 23.6869 40.2783 24.1193 40.1577C24.3716 40.0874 24.8371 39.8947 25.1537 39.7295L25.7295 39.4291L25.8969 39.5867C26.1985 39.8709 26.3727 39.7981 27.0691 39.0965C27.7619 38.3986 27.8354 38.2235 27.5593 37.9288L27.4065 37.7657L27.7396 37.0747C27.9228 36.6945 28.1115 36.2257 28.159 36.0327C28.2396 35.7045 28.2605 35.6818 28.4828 35.6818C28.9037 35.6818 28.9643 35.5315 28.9643 34.4871C28.9643 33.455 28.9065 33.3182 28.47 33.3182C28.263 33.3182 28.2384 33.2904 28.159 32.9673C28.1115 32.7743 27.9228 32.3055 27.7396 31.9253L27.4065 31.2343L27.5593 31.0712C27.838 30.7737 27.7633 30.5964 27.066 29.9004C26.3676 29.2033 26.1957 29.1317 25.8969 29.4133L25.7295 29.5709L25.1537 29.2705C24.8371 29.1053 24.3716 28.9126 24.1193 28.8423C23.6798 28.7197 23.6607 28.7047 23.6607 28.4794C23.6607 28.0612 23.5088 28 22.4693 28C21.6697 28 21.5312 28.0179 21.4255 28.1351ZM42.6398 30.4987C42.5727 30.573 42.5179 30.7505 42.5179 30.8932C42.5179 31.1346 42.496 31.1593 42.2048 31.2465C42.0327 31.2981 41.7636 31.4057 41.6071 31.4856L41.3226 31.6309L41.1243 31.4404C41.0153 31.3357 40.8609 31.25 40.7814 31.25C40.6049 31.25 39.2768 32.5665 39.2768 32.7415C39.2768 32.8087 39.3612 32.9642 39.4643 33.0872L39.6519 33.3107L39.5094 33.5914C39.431 33.7459 39.3247 34.0135 39.2733 34.1861C39.1853 34.4817 39.1639 34.5 38.9083 34.5C38.4491 34.5 38.3929 34.6302 38.3929 35.6947C38.3929 36.7414 38.4481 36.8636 38.921 36.8636C39.1617 36.8636 39.1863 36.8856 39.2733 37.1776C39.3247 37.3502 39.4321 37.6199 39.5118 37.7769L39.6567 38.0622L39.4667 38.261C39.3622 38.3703 39.2768 38.5251 39.2768 38.6049C39.2768 38.7819 40.5897 40.1136 40.7641 40.1136C40.8312 40.1136 40.9863 40.029 41.1089 39.9256L41.3318 39.7375L41.6118 39.8804C41.7658 39.959 42.0327 40.0655 42.2048 40.1171C42.4996 40.2054 42.5179 40.2268 42.5179 40.4832C42.5179 40.9436 42.6477 41 43.7092 41C44.7531 41 44.875 40.9446 44.875 40.4704C44.875 40.229 44.8969 40.2043 45.1881 40.1171C45.3602 40.0655 45.6292 39.9579 45.7857 39.878L46.0703 39.7327L46.2685 39.9232C46.3775 40.028 46.5319 40.1136 46.6115 40.1136C46.788 40.1136 48.1161 38.7971 48.1161 38.6222C48.1161 38.555 48.0317 38.3994 47.9285 38.2764L47.741 38.0529L47.8835 37.7722C47.9619 37.6178 48.0681 37.3502 48.1195 37.1776C48.2076 36.882 48.2289 36.8636 48.4846 36.8636C48.9438 36.8636 49 36.7334 49 35.669C49 34.6222 48.9448 34.5 48.4719 34.5C48.2311 34.5 48.2065 34.4781 48.1195 34.1861C48.0681 34.0135 47.9608 33.7437 47.8811 33.5867L47.7362 33.3014L47.9262 33.1026C48.0306 32.9933 48.1161 32.8385 48.1161 32.7587C48.1161 32.5818 46.8031 31.25 46.6287 31.25C46.5617 31.25 46.4066 31.3346 46.2839 31.4381L46.061 31.6261L45.7811 31.4833C45.6271 31.4046 45.3602 31.2981 45.1881 31.2465C44.8933 31.1583 44.875 31.1368 44.875 30.8805C44.875 30.42 44.7451 30.3636 43.6836 30.3636C42.884 30.3636 42.7455 30.3816 42.6398 30.4987ZM21.6008 32.299C21.0499 32.5111 20.4926 33.0773 20.2837 33.6372C19.6978 35.2072 20.8265 36.8636 22.4821 36.8636C23.782 36.8636 24.8393 35.8034 24.8393 34.5C24.8393 32.8358 23.164 31.6972 21.6008 32.299ZM42.8978 34.0988C42.2317 34.4366 41.8874 35.0614 41.943 35.8317C41.9839 36.399 42.2834 36.8913 42.7718 37.1941C43.091 37.3919 43.1972 37.4176 43.6964 37.4176C44.1956 37.4176 44.3018 37.3919 44.621 37.1941C44.8445 37.0555 45.0664 36.8331 45.2046 36.609C45.4018 36.2889 45.4275 36.1824 45.4275 35.6818C45.4275 35.1812 45.4018 35.0747 45.2046 34.7547C44.7198 33.9686 43.7169 33.6834 42.8978 34.0988Z" fill="black"/>
</svg>
