<svg width="65" height="56" viewBox="0 0 65 56" fill="none" xmlns="http://www.w3.org/2000/svg">
<path d="M48.75 5.13297e-08L65 28L48.75 56H16.25L0 28L16.25 0L48.75 5.13297e-08Z" fill="#E6E7E8"/>
<path d="M49 5.13297e-08L16.3333 56L0 28L16.3333 0L49 5.13297e-08Z" fill="white"/>
<path fill-rule="evenodd" clip-rule="evenodd" d="M31.4089 13.1264C31.4089 13.7458 31.4004 14.2527 31.39 14.2527C31.3796 14.2527 31.0601 14.1723 30.68 14.0739C29.7399 13.8308 28.3808 13.7731 27.495 13.9387C25.9676 14.2241 24.3757 15.0216 22.692 16.3447L22.2533 16.6894L23.1002 17.5353L23.9471 18.3811L23.6428 18.5347C22.2097 19.2578 20.9169 20.5718 20.2219 22.0117C19.7336 23.023 19.3234 24.5531 19.1607 25.969L19.1033 26.4694H20.2338C20.8555 26.4694 21.3637 26.4928 21.3631 26.5212C21.3624 26.5496 21.3007 26.8059 21.2258 27.0906C21.151 27.3753 21.0691 27.849 21.0439 28.1432L20.9979 28.6781H25.2898H29.5816L29.2656 28.3375C27.651 26.5966 27.708 23.9366 29.3958 22.2549C31.1404 20.5167 33.8994 20.5157 35.6338 22.2527C37.2887 23.91 37.3901 26.4051 35.8759 28.2122L35.4856 28.6781H40.1572H44.8288L45.0796 28.1315C45.5153 27.1817 45.7909 25.9837 45.9025 24.5541L45.9255 24.2608H44.7979C44.1778 24.2608 43.6704 24.2523 43.6704 24.2419C43.6704 24.2316 43.7511 23.9132 43.8498 23.5345C44.0923 22.6038 44.1518 21.2421 43.9878 20.3766C43.6986 18.8497 42.8879 17.2396 41.5708 15.5756L41.2248 15.1385L40.3792 15.9789L39.5336 16.8194L39.254 16.3118C38.4778 14.9028 37.1857 13.6997 35.7466 13.0463C34.7305 12.585 33.2969 12.2152 31.9112 12.0572L31.4089 12V13.1264ZM17.6581 30.9843C17.4033 31.097 17.1722 31.3401 17.0739 31.5988C17.0267 31.7229 17 32.6645 17 34.2065C17 36.8974 17.006 36.9382 17.4546 37.2794C17.6995 37.4657 17.7638 37.4798 18.4664 37.5016L19.2168 37.525V39.1693V40.8136L18.4596 40.837C17.826 40.8566 17.6712 40.8835 17.5114 41.0027C17.2093 41.2276 17.0567 41.4762 17.0197 41.8036C16.9744 42.2044 17.1255 42.5508 17.4549 42.8011L17.7166 43H20.8862C23.9794 43 24.0604 42.9965 24.2471 42.8577C24.6088 42.5886 24.724 42.3661 24.724 41.937C24.724 41.6056 24.6909 41.4966 24.5244 41.279C24.2462 40.9157 23.9841 40.8258 23.2022 40.8258H22.5419V39.1693V37.5128H32.5173H42.4927V39.1633V40.8136L41.7356 40.837C41.1019 40.8566 40.9472 40.8835 40.7874 41.0027C40.4853 41.2276 40.3327 41.4762 40.2957 41.8036C40.2503 42.2044 40.4014 42.5508 40.7308 42.8011L40.9925 43H44.1622C47.2554 43 47.3364 42.9965 47.523 42.8577C47.8847 42.5886 48 42.3661 48 41.937C48 41.6056 47.9669 41.4966 47.8004 41.279C47.5222 40.9157 47.2601 40.8258 46.4782 40.8258H45.8179V39.1754V37.525L46.575 37.5016C47.3932 37.4765 47.5474 37.4165 47.8572 37.0031C47.9955 36.8185 48 36.7309 48 34.2066V31.6008L47.8004 31.34C47.4252 30.8499 48.6686 30.8865 32.5022 30.8895C20.4597 30.8917 17.8291 30.9085 17.6581 30.9843Z" fill="black"/>
</svg>
