<svg width="65" height="56" viewBox="0 0 65 56" fill="none" xmlns="http://www.w3.org/2000/svg">
<path d="M48.75 5.13297e-08L65 28L48.75 56H16.25L0 28L16.25 0L48.75 5.13297e-08Z" fill="#E6E7E8"/>
<path d="M49 5.13297e-08L16.3333 56L0 28L16.3333 0L49 5.13297e-08Z" fill="white"/>
<path fill-rule="evenodd" clip-rule="evenodd" d="M27.1073 16.2804C26.9848 16.4814 26.3978 18.2939 25.8033 20.3084C24.9066 23.3458 24.803 24.0482 25.1967 24.423C26.3366 25.5086 33.9628 29.6488 34.8225 29.6488C35.4992 29.6488 36.3425 29.069 37.7707 27.6213C39.4663 25.9029 39.7546 25.4216 39.6628 24.4645L39.5545 23.3353L37.1645 23.2289L34.7741 23.1225L34.6726 19.6212L34.5708 16.1199L30.9505 16.0174C28.7775 15.9557 27.2411 16.0611 27.1073 16.2804ZM27.4679 19.6374C27.1194 20.8777 26.7541 22.1765 26.6562 22.5236C26.4953 23.0936 26.8107 23.1549 29.9014 23.1549H33.3249V20.2688V17.3826H30.7134H28.1019L27.4679 19.6374ZM19.889 25.8961C17.1561 27.7198 16.902 28.2645 17.0241 32.0429L17.1277 35.2407L18.7609 35.3482C20.2354 35.4453 20.4518 35.5788 20.9894 36.721C21.7124 38.2579 23.6311 39.1955 25.4431 38.8975C26.9332 38.6522 28.5814 37.1366 28.8861 35.731L29.1097 34.6996H33.1511C36.8256 34.6996 37.2125 34.7627 37.4098 35.393C37.7675 36.5348 40.311 38.61 41.6691 38.8683C43.8242 39.2778 45.4457 38.7453 47.0772 37.0922C49.6409 34.4936 49.6409 31.2979 47.0772 28.6992C45.4457 27.0462 43.8242 26.5137 41.6691 26.9232C40.311 27.1815 37.7675 29.2566 37.4098 30.3985C37.2293 30.9757 36.8526 31.0919 35.166 31.0919C33.2519 31.0919 32.8379 30.9111 27.7267 27.8449C24.75 26.0591 22.1887 24.6099 22.0349 24.6243C21.8811 24.6388 20.9153 25.211 19.889 25.8961ZM40.8304 28.8183C40.1618 29.1758 39.3812 29.8339 39.096 30.2801L38.5777 31.0919H41.0878C43.7099 31.0919 44.722 31.5778 44.7109 32.8311C44.6988 34.1757 44.0798 34.5159 41.3135 34.6996L38.5952 34.88L39.3609 35.8634C39.782 36.4042 40.7588 37.0388 41.5317 37.2733C45.3065 38.4195 48.5556 34.9178 47.1615 31.2052C46.2103 28.6733 43.214 27.5433 40.8304 28.8183ZM22.8074 32.6991C21.0413 34.4885 22.2926 37.5857 24.7813 37.5857C26.2447 37.5857 27.6291 36.1827 27.6291 34.6996C27.6291 33.2165 26.2447 31.8134 24.7813 31.8134C24.0878 31.8134 23.3581 32.1406 22.8074 32.6991Z" fill="black"/>
</svg>
