<svg width="65" height="56" viewBox="0 0 65 56" fill="none" xmlns="http://www.w3.org/2000/svg">
<path d="M48.75 5.13297e-08L65 28L48.75 56H16.25L0 28L16.25 0L48.75 5.13297e-08Z" fill="#E6E7E8"/>
<path d="M49 5.13297e-08L16.3333 56L0 28L16.3333 0L49 5.13297e-08Z" fill="white"/>
<path fill-rule="evenodd" clip-rule="evenodd" d="M24.0268 9.09201C23.8397 9.19435 23.7775 9.3114 23.3921 10.2855C22.6134 12.2544 21.9657 14.5706 21.47 17.1592C21.2558 18.2778 20.8919 20.7553 20.8919 21.0951C20.8919 21.3465 21.031 21.6707 21.1621 21.7253C21.2075 21.7442 21.8001 21.9922 22.479 22.2764C23.9467 22.8909 24.0026 22.9059 24.2714 22.7563C24.4932 22.6329 25.7248 21.0267 26.696 19.5944C27.0134 19.1262 27.2959 18.742 27.3238 18.7408C27.381 18.7381 29.987 19.8123 30.1107 19.8895C30.1722 19.928 29.9014 21.9529 28.9221 28.7758L27.6537 37.6122L23.5046 37.6445L19.3556 37.6768L19.1778 37.8557L19 38.0346V39.8384V41.6422L19.1778 41.8211L19.3556 42H32.5H45.6444L45.8222 41.8211L46 41.6422V39.8316V38.0211L45.7905 37.8328C45.5829 37.6461 45.5745 37.6445 44.7804 37.6445H43.9798V34.0389C43.9798 30.7671 43.97 30.4252 43.874 30.3448C43.7998 30.2828 43.5221 30.25 42.9441 30.2351L42.12 30.2138V27.5463V24.8788L42.3444 24.9412C42.6384 25.0228 42.962 24.874 43.1064 24.5907C43.373 24.0676 44.1081 22.1823 44.1081 22.0216C44.1081 21.7267 43.9758 21.5226 43.6974 21.3876C43.5529 21.3176 40.2647 19.9402 36.3903 18.3266C32.5159 16.7131 29.3323 15.3793 29.3157 15.3625C29.299 15.3457 29.4214 15.0604 29.5877 14.7284C29.754 14.3964 30.0733 13.7038 30.2972 13.1892C30.765 12.114 30.8003 11.8715 30.5279 11.6056C30.3258 11.4082 24.6198 8.99974 24.3551 9C24.2669 9.00013 24.1192 9.04149 24.0268 9.09201ZM31.5755 20.668C31.4827 21.1461 31.3378 22.2317 31.3585 22.2941C31.3791 22.3563 32.8247 21.1828 32.8696 21.0674C32.8789 21.0436 32.5988 20.9062 32.2473 20.7622L31.608 20.5004L31.5755 20.668ZM35.1326 22.112C35.1343 22.1907 35.633 25.7105 36.2408 29.9337L37.346 37.6122L38.0975 37.6304L38.8492 37.6486V34.0777C38.8492 31.0982 38.8642 30.4861 38.94 30.3815C39.0209 30.2702 39.1278 30.254 39.902 30.2352L40.7732 30.214V27.2647V24.3155L38.0689 23.1885C36.5815 22.5687 35.3117 22.0407 35.247 22.0152C35.1541 21.9786 35.1301 21.9989 35.1326 22.112ZM32.7131 23.147C32.2483 23.5437 31.868 23.8973 31.8678 23.9328C31.8676 23.9883 33.9576 25.5797 34.0939 25.6279C34.121 25.6375 34.0413 24.9188 33.9167 24.0308C33.7861 23.1008 33.6622 22.4183 33.6241 22.4211C33.5879 22.4236 33.1779 22.7503 32.7131 23.147ZM30.6629 26.9546C30.5178 27.9543 30.4089 28.7831 30.4208 28.7964C30.4488 28.8278 33.3342 26.9852 33.3322 26.9373C33.3308 26.906 31.1975 25.2997 30.9985 25.1801C30.9484 25.15 30.8468 25.6875 30.6629 26.9546ZM32.8848 29.0033C32.0559 29.5363 31.3777 29.9859 31.3777 30.0025C31.3777 30.046 35.1404 32.9446 35.1649 32.92C35.1828 32.902 34.6158 28.7934 34.519 28.2399C34.4988 28.1245 34.462 28.0311 34.4371 28.0322C34.4123 28.0334 33.7137 28.4704 32.8848 29.0033ZM29.6199 34.2272C29.3608 36.0385 29.1603 37.5322 29.1744 37.5464C29.2079 37.58 34.0147 34.0806 34.0343 34.0084C34.0466 33.9628 30.1845 30.9338 30.114 30.9338C30.1014 30.9338 29.8791 32.4158 29.6199 34.2272ZM33.5284 36.2408L31.6457 37.6122L33.7181 37.6293C34.8579 37.6386 35.8049 37.6317 35.8227 37.6138C35.8643 37.5719 35.5097 34.9826 35.4535 34.918C35.4302 34.8913 34.5639 35.4866 33.5284 36.2408Z" fill="black"/>
</svg>
