<svg width="148" height="128" viewBox="0 0 148 128" fill="none" xmlns="http://www.w3.org/2000/svg">
<path d="M111 1.44856e-06L148 64L111 128H37L0 64L37 0L111 1.44856e-06Z" fill="black"/>
<path d="M111 1.44856e-06L37 128L0 64L37 0L111 1.44856e-06Z" fill="#424653"/>
<path fill-rule="evenodd" clip-rule="evenodd" d="M82.8529 53.8864C72.7673 63.174 64.2822 70.9941 63.9972 71.2643L63.4791 71.7559L55.5474 63.3456C51.1851 58.72 47.5515 54.9567 47.4728 54.9827C47.3943 55.0087 45.0057 57.1891 42.165 59.8277L37 64.6252L37.5271 65.2255C37.8168 65.5557 43.6141 71.715 50.4097 78.9129L62.7656 92L63.5681 91.2269C64.0096 90.8017 74.6192 81.0328 87.145 69.5183C99.6708 58.0036 110.162 48.3491 110.459 48.0637L111 47.5448L106.933 43.1649C104.697 40.7559 102.49 38.3833 102.029 37.8924L101.19 37L82.8529 53.8864Z" fill="white"/>
</svg>
