<svg width="56" height="56" viewBox="0 0 56 56" fill="none" xmlns="http://www.w3.org/2000/svg">
<path fill-rule="evenodd" clip-rule="evenodd" d="M25.2466 0.067889C19.6997 0.644442 14.539 2.77509 10.2691 6.2515C9.85421 6.58926 8.95575 7.41819 8.2724 8.0936C3.7836 12.5302 1.04682 18.0641 0.158629 24.4998C-0.0297156 25.8646 -0.0297156 30.1487 0.158629 31.5135C1.04474 37.9347 3.7859 43.4782 8.2724 47.9224C12.7409 52.3488 18.0351 54.9422 24.4818 55.8628C25.7796 56.0481 30.0715 56.045 31.4191 55.8579C37.6957 54.9862 43.2235 52.2765 47.5791 47.9363C51.9754 43.5556 54.7031 38.122 55.6106 31.9378C55.7046 31.2972 55.7815 30.548 55.7815 30.2731C55.7815 29.998 55.8307 29.7425 55.8908 29.7053C55.9562 29.6647 56 28.9349 56 27.8841C56 26.7431 55.9619 26.1543 55.8908 26.1984C55.8239 26.2398 55.7815 26.0672 55.7815 25.7531C55.7815 24.3533 55.1959 21.4361 54.4741 19.2394C53.0766 14.9867 50.85 11.3624 47.6827 8.18532C43.342 3.83099 37.9591 1.12938 31.8015 0.214849C30.4619 0.0158338 26.5835 -0.071071 25.2466 0.067889ZM39.5581 17.038C37.8891 17.6539 13.0172 27.3015 12.4872 27.5386C11.8346 27.8304 11.3148 28.3236 11.3209 28.6452C11.3252 28.8782 11.5159 29.1257 11.8636 29.3499C12.1281 29.5205 19.0346 31.7327 19.3026 31.7327C19.3757 31.7327 21.0626 30.7031 23.0511 29.4448C25.0397 28.1865 28.6824 25.8816 31.146 24.3228C34.7847 22.0203 35.6969 21.4882 36.0075 21.4872C36.2699 21.4865 36.3899 21.5361 36.3899 21.6456C36.3899 21.7334 33.4402 24.4794 29.835 27.748L23.2801 33.6908L23.0278 37.2167C22.8891 39.156 22.7995 40.7667 22.8288 40.7961C22.8582 40.8255 23.0391 40.815 23.231 40.7727C23.4806 40.7176 24.1474 40.1546 25.5736 38.7946L27.5673 36.8934L31.0501 39.4759C32.9655 40.8963 34.6909 42.127 34.8842 42.2107C35.8041 42.6091 36.6155 42.2435 36.925 41.2911C37.2707 40.2276 41.6884 19.0044 41.6884 18.4071C41.6884 17.6513 41.4548 17.1855 40.9746 16.9842C40.4924 16.7821 40.2236 16.7923 39.5581 17.038ZM0 28.0066C0 29.0012 0.0166058 29.4081 0.0368167 28.9108C0.0570277 28.4134 0.0570277 27.5997 0.0368167 27.1025C0.0166058 26.6053 0 27.0121 0 28.0066Z" fill="#32AADF"/>
</svg>
