<svg width="56" height="56" viewBox="0 0 56 56" fill="none" xmlns="http://www.w3.org/2000/svg">
<path fill-rule="evenodd" clip-rule="evenodd" d="M25.2718 0.0670329C14.4328 1.18296 5.25808 8.37906 1.61908 18.6191C-0.932743 25.7996 -0.454603 33.6109 2.95766 40.487C4.37745 43.3482 5.98599 45.598 8.20202 47.8223C10.418 50.0467 12.6593 51.6613 15.5097 53.0865C18.2042 54.4337 21.046 55.3319 24.071 55.7921C25.6812 56.0373 29.8697 56.0742 31.3851 55.8569C37.8279 54.9325 43.2982 52.239 47.6944 47.826C49.9417 45.5704 51.546 43.3052 53.0032 40.3308C53.9909 38.3146 54.7492 36.2094 55.1738 34.3041C55.4964 32.857 55.7833 30.9578 55.7833 30.2696C55.7833 29.9945 55.8324 29.7391 55.8925 29.7019C55.9583 29.661 56.001 28.9082 56 27.8052C55.9988 26.5839 55.9631 26.0308 55.8925 26.1406C55.8162 26.2592 55.7861 26.1562 55.7849 25.7711C55.7841 25.4776 55.7064 24.7133 55.6126 24.0727C54.9641 19.6511 53.3771 15.5857 50.9167 12.0434C46.4255 5.5773 39.6464 1.37801 31.8217 0.215071C30.4867 0.0166277 26.6119 -0.0709238 25.2718 0.0670329ZM24.8898 10.5916C22.4931 10.7619 19.8331 11.1776 18.7713 11.5479C16.2054 12.4427 13.5989 14.8421 12.3819 17.4293C11.2026 19.9365 10.7285 25.8957 11.362 30.2478C11.674 32.3907 11.9161 33.3228 12.4444 34.4137C13.616 36.8332 16.2022 39.2449 18.5198 40.0792L19.2132 40.3288V42.1934C19.2132 43.2188 19.2611 44.2257 19.3198 44.4308C19.5337 45.1796 20.2679 45.6267 21.0488 45.4837C21.3902 45.4213 21.7566 45.0953 23.4706 43.3286L25.4902 41.2471L28.3284 41.2089C32.9223 41.1471 36.437 40.6275 38.1505 39.7568C40.4403 38.5932 42.7302 36.2056 43.6952 33.9753C44.6347 31.8042 45.0922 25.8034 44.6058 22.0315C44.2957 19.6262 44.0308 18.5075 43.5157 17.4293C42.0361 14.3313 38.8488 11.7551 35.8062 11.1981C32.3055 10.5573 28.4158 10.3412 24.8898 10.5916ZM24.8898 13.6053C24.6796 13.6296 24.0165 13.7025 23.416 13.767C21.3452 13.99 19.9844 14.2787 19.169 14.6681C17.7451 15.3481 16.0757 16.9234 15.2432 18.3727C14.391 19.8562 13.8668 24.7616 14.181 28.3116C14.3358 30.0601 14.6678 31.9812 14.9393 32.6981C15.6021 34.4489 17.7313 36.4998 19.7299 37.3123L20.4686 37.6126L20.4975 40.8619L20.5265 44.1112H20.773C20.952 44.1112 21.8027 43.3044 23.8755 41.1687L26.7315 38.2263L29.1128 38.1626C32.4234 38.0741 35.4193 37.671 36.5172 37.1665C38.4564 36.2754 40.4396 34.1958 41.0295 32.4348C41.1495 32.0767 41.3607 31.0688 41.4989 30.195C41.7126 28.8448 41.7503 28.1948 41.7499 25.8667C41.7494 22.999 41.6019 21.4996 41.1405 19.6776C40.5131 17.1995 37.6977 14.6208 35.0966 14.1418C32.8509 13.7283 31.6627 13.63 28.4922 13.5959C26.721 13.5767 25.0999 13.581 24.8898 13.6053ZM27.3677 17.3766C27.2438 17.5542 27.2229 17.6845 27.2964 17.8224C27.4251 18.0636 27.5738 18.1067 28.6014 18.2007C31.5214 18.4678 34.0197 20.4319 34.9375 23.1821C35.0683 23.5738 35.2336 24.4625 35.3051 25.157C35.3766 25.8514 35.4724 26.4801 35.518 26.5541C35.633 26.7409 36.0789 26.7225 36.2429 26.5242C36.4058 26.327 36.2413 24.4616 35.9644 23.3653C35.1149 20.0029 32.0254 17.4736 28.4269 17.1943C27.5908 17.1293 27.5334 17.1391 27.3677 17.3766ZM21.1936 18.4742C20.469 18.8988 19.737 19.6225 19.4391 20.2087C19.0701 20.9345 19.1383 21.4406 19.8191 23.0288C22.0506 28.2349 25.2157 31.5523 30.259 33.9712C30.9384 34.2971 31.787 34.6614 32.1449 34.7807C32.7818 34.9933 32.8068 34.9936 33.3249 34.7961C34.2964 34.4255 35.2649 33.4491 35.6407 32.4612C35.8041 32.0316 35.8064 31.9415 35.6621 31.5949C35.4907 31.1831 34.5031 30.367 32.9243 29.3325C31.6485 28.4964 31.2893 28.5424 30.2218 29.6786C29.6109 30.329 29.5994 30.3351 29.1302 30.2642C28.8694 30.2249 28.2384 29.9875 27.728 29.7367C26.9862 29.3723 26.6125 29.0924 25.864 28.3408C25.0759 27.5496 24.8382 27.2214 24.3629 26.2676C23.5744 24.6859 23.5851 24.4692 24.4952 23.5852C25.5856 22.5263 25.5589 22.1701 24.246 20.2514C22.7648 18.0868 22.3084 17.821 21.1936 18.4742ZM28.1179 19.519C27.7678 19.8706 28.0535 20.3331 28.6207 20.3331C29.0822 20.3331 30.1954 20.6351 30.7155 20.9015C31.3535 21.2281 32.296 22.1698 32.6141 22.7983C32.9632 23.4879 33.1833 24.3039 33.185 24.9151C33.1866 25.5139 33.3443 25.8119 33.6595 25.8119C34.1989 25.8119 34.2965 25.2843 34.0089 23.9221C33.5273 21.641 31.8645 20.0039 29.5293 19.5117C28.5538 19.3061 28.3289 19.3073 28.1179 19.519ZM28.7378 21.7693C28.3895 22.1309 28.7913 22.6342 29.4283 22.6342C29.8097 22.6342 30.3879 22.9852 30.6917 23.4012C30.8017 23.5519 30.9415 23.9414 31.0022 24.267C31.1246 24.9221 31.2654 25.1544 31.5403 25.1544C31.8287 25.1544 31.9855 24.9244 31.9848 24.5025C31.9833 23.4912 31.421 22.5075 30.5832 22.0507C29.931 21.6951 28.953 21.546 28.7378 21.7693ZM0.0449331 27.9486C0.0448239 28.9732 0.0611986 29.4071 0.081394 28.9128C0.101589 28.4186 0.101699 27.5804 0.0816123 27.05C0.0616353 26.5198 0.0450423 26.9241 0.0449331 27.9486Z" fill="#6559A2"/>
</svg>
