<svg width="56" height="56" viewBox="0 0 56 56" fill="none" xmlns="http://www.w3.org/2000/svg">
<path fill-rule="evenodd" clip-rule="evenodd" d="M25.8028 0.0198533C21.6611 0.43721 18.4873 1.3557 15.0813 3.1227C9.94909 5.78531 5.78419 9.95832 3.11673 15.1106C1.61077 18.0195 0.742819 20.7276 0.217152 24.157C-0.0165022 25.6813 -0.051911 29.6843 0.154094 31.2754C0.724896 35.6837 2.16015 39.6325 4.50598 43.2485L5.28792 44.4539L3.54907 49.5987C2.59271 52.4284 1.82574 54.759 1.84464 54.778C1.86355 54.7969 4.25604 54.0505 7.16131 53.1192C10.0667 52.1879 12.4826 51.4259 12.5301 51.4259C12.5776 51.4259 13.0262 51.681 13.5268 51.9928C14.7798 52.7733 17.0099 53.8287 18.6446 54.4148C24.1805 56.3998 30.6497 56.5269 36.2396 54.7606C43.3546 52.5123 49.3331 47.4821 52.7495 40.8693C54.8326 36.8372 55.841 32.7618 55.986 27.7883C56.0176 26.7062 55.9961 26.2398 55.9169 26.289C55.842 26.3353 55.8014 26.1576 55.8007 25.7788C55.7995 25.1283 55.4639 22.8368 55.2104 21.7477C53.342 13.7193 48.0563 6.89424 40.7865 3.1227C36.7507 1.02902 33.0489 0.0941035 28.4803 0.0147061C27.2481 -0.00675852 26.0432 -0.00445874 25.8028 0.0198533ZM16.2949 12.9162C15.3614 13.1633 14.9428 13.3957 14.3709 13.984C13.2055 15.1831 12.3984 16.5591 12.0336 17.9695C11.1322 21.4537 12.0412 24.8109 15.058 29.1398C18.1907 33.6351 21.8487 37.2891 25.5296 39.6001C28.0941 41.2102 32.4812 42.9433 35.3501 43.4796C37.3573 43.8549 38.8837 43.6411 40.775 42.72C43.532 41.3772 44.5756 39.8291 44.7323 36.8499L44.7934 35.6895L44.4234 35.4117C44.0397 35.1235 38.809 32.5574 37.7929 32.159C37.0479 31.8668 36.5791 31.8724 36.1266 32.1788C35.9265 32.3144 35.2423 33.1138 34.6061 33.9553C33.3109 35.6685 32.942 35.9844 32.237 35.9844C31.4206 35.9844 29.3753 35.0819 27.6607 33.9651C25.0825 32.2857 22.9077 30.1031 21.0423 27.3231C20.2319 26.1154 20.0304 25.6607 20.1213 25.2457C20.1596 25.0712 20.6692 24.3871 21.2753 23.6964C22.4642 22.3417 22.9701 21.4901 22.8735 21.0062C22.7973 20.6245 20.1266 14.1703 19.8112 13.6056C19.6818 13.3738 19.4327 13.11 19.2579 13.0193C18.82 12.7924 17.0013 12.7291 16.2949 12.9162ZM0 27.8804C0 28.7538 0.0170486 29.1112 0.037813 28.6744C0.0584681 28.2377 0.0584681 27.5232 0.037813 27.0865C0.0170486 26.6497 0 27.0071 0 27.8804Z" fill="#24CD45"/>
</svg>
